<?xml version="1.0" standalone="no"?>
<!DOCTYPE svg PUBLIC "-//W3C//DTD SVG 1.1//EN" "http://www.w3.org/Graphics/SVG/1.1/DTD/svg11.dtd">
<svg xmlns="http://www.w3.org/2000/svg">
<metadata>Copyright (C) 2021 by original authors @ fontello.com</metadata>
<defs>
<font id="iconos" horiz-adv-x="1000" >
<font-face font-family="iconos" font-weight="400" font-stretch="normal" units-per-em="1000" ascent="850" descent="-150" />
<missing-glyph horiz-adv-x="1000" />
<glyph glyph-name="plus" unicode="&#x2b;" d="M111-135h-19l-12 59-21-60h-7l-22 60-12-59h-18l22 109h10l24-73 22 73h11z m54 8q-4-5-8-6-13-3-13-3h-2q-11 0-18 6-8 7-8 17v2q0 7 3 12 3 5 8 9 12 8 26 8h3q6 0 8-1 0 14-18 14h-1q-13 0-17-4l-4 15q11 4 22 4h1v0h3q14 0 24-8 8-9 8-26v-23q0-15 7-19-3-4-6-5-5-1-5-1h-1q-4 0-7 2-4 3-5 7v0z m-2 29q0 2-6 2-28 1-23-15 0 0 13-10 1-1 2-1 6 0 10 5 5 4 5 10v2z m7 75l-17-21h-14l13 21h18z m27-106l6 14q8-6 19-6v0 0q11 0 11 7v1q0 6-3 7-7 4-13 7-21 9-21 24v0q0 5 3 9 2 4 5 7 9 6 19 6h2q12 0 23-6l-6-14q-15 4-15 4h-2q-10 0-9-7 0-4 3-6 6-4 14-6 8-3 14-10 6-6 6-13v-1 0-1q0-5-3-9-2-5-6-8-6-6-20-6h-4q-10 0-11 1-7 3-12 6v0z m73 59h-9v15h9v16l18 7v-23h22v-15h-22v-37q0-5 3-9 3-4 9-4h1q6 0 12 4v-18q-1-2-16-2h-4q-10 0-16 7-7 7-7 17v2z m128-30h-56q-1-9 6-15 6-5 14-5h4q9 0 17 6l7-14q-15-10-25-8-3 0-4 0h-2q-18 0-26 11-11 13-11 30 0 19 11 30 6 5 13 8 7 4 15 4v0h2q15 0 26-11 12-12 11-25z m-56 14h39v0q0 7-5 12-5 5-13 5h-2q-8 0-13-5-6-5-6-12v0z m118 13q-5 4-11 4-9 0-11-6-5-13-5-14v-46h-19v80h19v-7q8 9 20 9h2q7 0 13-4z m121-62l-8 23h-37l-8-23h-21l43 111h9l43-111h-21z m-26 78l-12-41h25z m53-72l6 14q8-6 19-6v0 0q10 0 10 7v1q0 4-3 7-6 4-12 7-21 9-21 24v1q0 4 2 8 3 4 6 7 8 6 19 6h2q12 0 23-6l-6-14q-15 4-15 4h-2q-10 0-10-7 0-4 4-6 6-4 13-6 12-4 16-10 4-5 4-13v-1 0-1q0-3-2-9-2-5-6-8-7-6-20-6h-4q-10 0-11 1-7 3-12 6v0z m140 29h-56q0-9 6-15 8-5 16-5h3q9 0 17 6l7-14q-15-11-26-8-2 0-3 0h-2q-16 0-27 11-11 11-11 27v4q0 10 4 16 3 7 9 13 5 5 12 8 8 4 16 4 15 0 26-11 5-5 8-11 3-6 3-14v-1q0-7-2-10v0z m-55 14h38v0q0 7-4 12-7 7-13 5-1 0-2 0h-1q-7 0-12-5-6-5-6-12v0z m67-43l7 14q8-6 18-6v0 0q11 0 11 7v1q0 4-3 7-6 4-12 7-22 9-21 24v0q-1 5 2 9 2 4 6 7 8 6 18 6h2v0q12 0 23-6l-5-14q-15 4-16 4h-1q-10 0-10-7 0-4 3-6 7-4 14-6 11-4 15-10 4-6 4-13v-2q0-5-2-9-2-5-6-8-6-6-20-6h-3q-11 0-11 1-7 3-13 6v0z m65 35q0 0 0 1 0 16 11 28 4 5 11 8 6 4 15 4h3q9 0 15-3 6-3 11-9 14-15 11-27-1-2-1-2 1-2 1-3 0-16-11-27-6-6-13-9-7-3-15-3-8 0-15 3-8 3-13 9-10 11-10 27v3z m19 0q0-27 19-27h1q4 0 7 2 4 2 6 5 5 8 5 17v3q0 12-5 18-5 7-14 7v0q-4 0-8-2-4-2-6-5-5-8-5-18v0z m118 21q-6 4-11 4v0q-9 0-12-6-4-12-4-13v-46h-18v79h18v-7q8 9 20 9h2q9 0 13-3z m-360 513q24 42 30 37 3-4 49-158l46-156-22-17q-24-18-84-39-67-23-102-27-98-11-213 41-43 19-50 28-9 10-4 27l43 151q42 148 46 145 13 12 37-38 0-1 17-30 14-24 42-52 10-11 36-14 30-4 53 8 8 5 37 35 12 13 39 59z m-184 435q59 12 119 1 100-20 184-76 40-34 64-59 52-77 57-87 11-24 25-64 8-26 10-99 0-54-2-80-5-45-10-50t-15 16q-14 27-55 165-44 142-59 168-15 23-44 34-53 19-107-52-60-76-69-89l-31-39-24 30q-24 29-24 32-12 21-49 63t-53 52-44 9-52-38q-20-28-64-170-14-43-51-168l-11-36-12 23q-13 24-15 88-4 98 19 158 78 220 313 268z" horiz-adv-x="970" />

<glyph glyph-name="comma" unicode="&#x2c;" d="M166 715h-23l-14 73-27-74h-8l-27 74-15-73h-22l27 135h12l29-91 29 91h12z m68 10q-4-6-11-9t-15-3h-2q-13 0-22 9t-10 20v3q0 8 4 15t9 10q14 10 32 10h4q5 0 9-1 0 17-21 17h-2q-11 0-20-4l-5 18q13 5 27 5v0h5q16 0 29-10 11-14 11-32 0-4-1-7v-21q0-19 8-24-2-5-6-6t-8-2-9 4-6 8z m-2 36q-4 1-9 2-27 0-27-18 0-13 16-13 1-1 2-1 8 0 14 6t5 13q0 1-1 2v9z m7 93l-20-27h-17l16 27h21z m35-132l8 18q10-8 23-8v0q13 0 13 10v0q0 5-4 9-7 5-15 8-26 11-26 30v1q0 5 3 10t7 9q10 7 23 7h3q14 0 28-7l-7-18q-8 6-19 6h-2q-12 0-12-9 0-5 4-7 8-5 17-8 11-4 19-12 5-8 5-17v-2q0-6-2-11t-8-10q-11-7-25-7h-4q-7 0-14 1-8 3-15 7z m90 73h-11v19h11v20l23 8v-28h27v-19h-27v-45q0-7 3-13 4-4 10-4h3q8 0 15 5v-22q-10-2-20-2h-5q-12 0-20 9t-9 21v2 49z m159-37h-71q1-11 8-19 9-6 19-6h4q12 0 21 8l9-17q-14-10-32-10h-6q-20 0-34 13-13 16-13 37t15 37q6 7 15 11t19 4v0h2q19 0 32-13t13-31v-2q0-6-1-12z m-70 17h49q0 9-6 16t-16 6q-1 0-2-1h-1q-9 0-16-6t-8-15z m147 17q-6 4-14 4t-14-7-6-17v-56h-23v98h23v-9q10 11 24 11h4q8 0 15-4z m-489-930l-10 28h-46l-10-28h-26l53 137h11l54-137h-26z m-33 96l-15-50h32z m66-89l8 18q10-8 23-8v0 0q13 0 13 9v1q0 5-4 9-7 5-15 8-26 11-26 30v1q0 5 3 10t7 8q10 7 23 7h3q14 0 28-6l-7-18q-8 6-19 6h-2q-12 0-12-9 0-5 4-7 8-5 17-8 11-4 19-12 5-8 5-17v-1 0-1q0-6-2-12t-8-9q-11-7-25-7h-4q-7 0-14 1-8 3-15 7v0z m174 36h-70q0-11 8-18t19-7h4q12 0 21 8l9-18q-14-10-32-10-3 0-4 1h-3q-19 0-32 13t-14 34v5q0 10 4 19t11 16 16 10 19 4q19 0 33-12 6-6 10-14t3-17v-2q0-6-2-12v0z m-69 17h48v0q0 9-6 15t-15 7q-1 0-3-1h-1q-9 0-15-6t-8-15v0z m83-53l9 18q10-8 23-8v0 0q13 0 13 9v1q0 5-4 9-7 5-15 8-26 11-26 30v0q0 6 3 11t7 8q11 7 23 7h2v0q15 0 29-6l-7-18q-8 6-19 6h-2q-12 0-12-9 0-5 4-7 8-5 17-8 11-4 19-12 5-8 5-17v-2q0-6-2-12t-8-9q-11-7-25-7h-4q-7 0-14 1-8 3-16 7v0z m81 43v2q0 20 13 34 6 7 15 11t18 4l1-1q2 1 3 1 9 0 18-4t14-10q13-15 13-34 0-2-1-3 1-2 1-3 0-20-13-34-7-7-16-11t-19-4-19 4-16 11q-12 14-12 34v3z m24 0q0-33 23-33h1q5 0 10 2t6 7q7 10 7 21v3q0 16-6 23t-18 8v0q-5 0-9-2t-8-6q-6-10-6-22v-1z m146 27q-7 4-14 4v0q-9 0-14-7t-6-16v-57h-22v98h22v-9q10 11 25 11h3q9 0 16-3z m-169 376q22 35 24 29 8-20 39-126l37-125-17-14q-19-14-68-31-53-18-81-21-81-9-171 32-33 16-40 24t-3 20l35 121q34 119 36 116 14-18 30-30 0-2 14-24 11-19 33-42 9-9 29-11 32-4 42 6l30 28q5 5 31 48z m-147 348q51 10 95 0 81-16 147-60 33-28 52-48 42-61 45-69 10-19 20-51 7-21 8-80 1-43-1-64-4-36-8-40t-12 13q-11 22-44 132-35 114-48 135-11 18-35 27-42 15-85-42l-80-102-20 24q-18 23-19 25-12 22-38 51-33 36-43 41-13 8-35 8-20-1-42-31-16-22-51-136-11-34-41-134l-9-29-10 18q-10 20-12 71-2 78 16 126 63 176 250 215z" horiz-adv-x="633" />

<glyph glyph-name="hyphen" unicode="&#x2d;" d="M111-138l-10 28h-46l-10-28h-26l53 137h11l54-137h-26z m-33 96l-15-50h32z m66-89l8 18q10-8 23-8v0 0q13 0 13 9v1q0 5-4 9-7 5-15 8-26 11-26 30v1q0 5 3 10t7 8q10 7 23 7h3q14 0 28-6l-7-18q-8 6-19 6h-2q-12 0-12-9 0-5 4-7 8-5 17-8 11-4 19-12 5-8 5-17v-1 0-1q0-6-2-12t-8-9q-11-7-25-7h-4q-7 0-14 1-8 3-15 7v0z m174 36h-70q0-11 8-18t19-7h4q12 0 21 8l9-18q-14-10-32-10-3 0-4 1h-3q-19 0-32 13t-14 34v5q0 10 4 19t11 16 16 10 19 4q19 0 33-12 6-6 10-14t3-17v-2q0-6-2-12v0z m-69 17h48v0q0 9-6 15t-15 7q-1 0-3-1h-1q-9 0-15-6t-8-15v0z m83-53l9 18q10-8 23-8v0 0q13 0 13 9v1q0 5-4 9-7 5-15 8-26 11-26 30v0q0 6 3 11t7 8q11 7 23 7h2v0q15 0 29-6l-7-18q-8 6-19 6h-2q-12 0-12-9 0-5 4-7 8-5 17-8 11-4 19-12 5-8 5-17v-2q0-6-2-12t-8-9q-11-7-25-7h-4q-7 0-14 1-8 3-16 7v0z m81 43v2q0 20 13 34 6 7 15 11t18 4l1-1q2 1 3 1 9 0 18-4t14-10q13-15 13-34 0-2-1-3 1-2 1-3 0-20-13-34-7-7-16-11t-19-4-19 4-16 11q-12 14-12 34v3z m24 0q0-33 23-33h1q5 0 10 2t6 7q7 10 7 21v3q0 16-6 23t-18 8v0q-5 0-9-2t-8-6q-6-10-6-22v-1z m146 27q-7 4-14 4v0q-9 0-14-7t-6-16v-57h-22v98h22v-9q10 11 25 11h3q9 0 16-3z m-417 86h-23l-14 73-27-74h-8l-27 74-15-73h-22l27 135h12l29-91 29 91h12z m68 10q-4-6-11-9t-15-3h-2q-13 0-22 9t-10 20v3q0 8 4 15t9 10q14 10 32 10h4q5 0 9-1 0 17-21 17h-2q-11 0-20-4l-5 18q13 5 27 5v0h5q16 0 29-10 11-14 11-32 0-4-1-7v-21q0-19 8-24-2-5-6-6t-8-2-9 4-6 8z m-2 36q-4 1-9 2-27 0-27-18 0-13 16-13 1-1 2-1 8 0 14 6t5 13q0 1-1 2v9z m7 93l-20-27h-17l16 27h21z m35-132l8 18q10-8 23-8v0q13 0 13 10v0q0 5-4 9-7 5-15 8-26 11-26 30v1q0 5 3 10t7 9q10 7 23 7h3q14 0 28-7l-7-18q-8 6-19 6h-2q-12 0-12-9 0-5 4-7 8-5 17-8 11-4 19-12 5-8 5-17v-2q0-6-2-11t-8-10q-11-7-25-7h-4q-7 0-14 1-8 3-15 7z m90 73h-11v19h11v20l23 8v-28h27v-19h-27v-45q0-7 3-13 4-4 10-4h3q8 0 15 5v-22q-10-2-20-2h-5q-12 0-20 9t-9 21v2 49z m159-37h-71q1-11 8-19 9-6 19-6h4q12 0 21 8l9-17q-14-10-32-10h-6q-20 0-34 13-13 16-13 37t15 37q6 7 15 11t19 4v0h2q19 0 32-13t13-31v-2q0-6-1-12z m-70 17h49q0 9-6 16t-16 6q-1 0-2-1h-1q-9 0-16-6t-8-15z m147 17q-6 4-14 4t-14-7-6-17v-56h-23v98h23v-9q10 11 24 11h4q8 0 15-4z m-187 415q21 34 24 29 5-9 39-126l37-125-17-14q-19-14-68-31-53-18-81-21-81-9-171 32-33 16-40 24t-3 20l35 121q34 119 36 116-1 2 30-30 1-1 14-24 11-19 33-42 9-9 29-11 25-3 42 6 7 4 30 28 10 11 31 48z m-147 348q51 10 95 0 81-16 147-60 33-28 52-48 42-61 45-69 10-19 20-51 7-21 8-80 1-43-1-64-4-36-8-40t-12 13q-11 22-44 132-35 114-48 135-11 18-35 27-42 15-85-42l-80-102-20 24q-18 23-19 25-12 22-38 51-33 36-43 41-13 8-35 8-20-1-42-31-16-22-51-136-11-34-41-134l-9-29-10 18q-9 19-12 71-2 78 16 126 63 176 250 215z" horiz-adv-x="633" />

<glyph glyph-name="slash" unicode="&#x2f;" d="M137-82h-23l-15 73-26-74h-9l-27 74-15-73h-22l27 135h13l29-91 28 91h13z m67 10q-4-6-10-8-8-4-16-4h-2q-13 0-22 8t-10 21v3q0 8 4 14t9 11q15 10 33 10h3q5 0 10-1 0 17-22 17h-2q-10 0-20-4l-5 18q13 5 27 5h1v0h4q17 0 29-10 11-14 11-32v-28q0-19 8-24-2-5-7-6-3-2-7-2h-1q-5 0-9 3t-6 9v0z m-2 36l-8 2q-28 0-28-18 0-13 16-13 1-1 3-1 7 0 13 5t5 14v2z m8 93l-21-27h-17l16 27h22z m34-132l8 18q10-8 23-8v0 0q14 0 14 9v1q0 5-4 9-8 5-16 8-26 11-26 30v0q0 6 3 11t7 9q11 7 23 7h3q15 0 28-7l-7-18q-8 6-19 6h-2q-12 0-12-9 1-5 4-7 8-5 17-8 11-4 18-12t7-17v-1 0-1q0-6-3-12t-8-9q-11-7-25-7h-4q-7 0-14 1-8 3-15 7v0z m90 73h-11v19h11v20l23 8v-28h27v-19h-27v-45q0-7 4-12t10-5h2q8 0 15 5v-22q-10-2-20-2h-5q-12 0-20 8t-8 21v3z m159-37h-70q0-11 8-18t18-7h4q12 0 22 8l8-18q-14-10-31-10-3 0-5 1h-2q-19 0-33 13-13 16-13 37t14 37q7 7 16 11t18 4v0h3q18 0 32-13t13-31z m-69 17h48v0q0 9-6 15t-16 6h-3q-9 0-16-6t-7-15v0z m146 17q-6 4-14 4t-14-7-6-17v-57h-23v99h23v-9q10 11 25 11h3q8 0 16-4z m150-77l-10 28h-46l-10-28h-26l53 137h11l54-137h-26z m-33 96l-15-50h32z m66-89l8 18q10-8 23-8v0 0q13 0 13 9v1q0 5-4 9-7 5-15 8-26 11-26 30v1q0 5 3 10t7 9q10 7 23 7h3q14 0 28-7l-7-18q-8 6-19 6h-2q-12 0-12-9 0-5 4-7 8-5 17-8 11-4 19-12 5-8 5-17v-1 0-1q0-6-2-12t-8-9q-11-7-25-7h-4q-7 0-14 1-8 3-15 7v0z m174 36h-70q0-11 8-18t19-7h4q12 0 21 8l9-18q-14-10-32-10-3 0-4 1h-3q-19 0-32 13t-14 34v5q0 10 4 19t11 16 16 11 19 4q19 0 33-13 6-6 10-14t3-17v-2q0-6-2-12v0z m-69 17h48v0q0 9-6 15t-15 7q-1 0-3-1h-1q-9 0-15-6t-8-15v0z m83-53l9 18q10-8 23-8v0 0q13 0 13 9v1q0 5-4 9-7 5-15 8-26 11-26 30v0q0 6 3 11t7 9q11 7 23 7h2v0q15 0 29-7l-7-18q-8 6-19 6h-2q-12 0-12-9 0-5 4-7 8-5 17-8 11-4 19-12 5-8 5-17v-2q0-6-2-12t-8-9q-11-7-25-7h-4q-7 0-14 1-8 3-16 7v0z m81 43v2q0 20 13 34 6 7 15 11t18 4h4q9 0 18-3t14-11q13-15 13-34 0-2-1-3 1-2 1-3 0-20-13-34-7-7-16-11t-19-4-19 4-16 11q-12 14-12 34v3z m24 0q0-33 23-33h1q5 0 10 2t6 7q7 10 7 21v3q0 16-6 23t-18 8v0q-5 0-9-2t-8-6q-6-10-6-22v-1z m146 27q-7 4-14 4v0q-9 0-14-7t-6-16v-57h-22v98h22v-9q10 11 25 11h3q9 0 16-3z m-434 445q24 42 30 37 3-4 49-158l46-156-22-17q-24-18-84-39-67-23-102-27-98-11-213 41-43 19-50 28-9 10-4 27l43 151q42 148 46 145 13 12 37-38 0-1 17-30 14-24 42-52 10-11 36-14 30-4 53 8 8 5 37 35 12 13 39 59z m-184 435q59 12 119 1 100-20 184-76 40-34 64-59 52-77 57-87 11-24 25-64 8-26 10-99 0-54-2-80-5-45-10-50t-15 16q-14 27-55 165-44 142-59 168-15 23-44 34-53 19-107-52-60-76-69-89l-31-39-24 30q-24 29-24 32-12 21-49 63t-53 52-44 9-52-38q-20-28-64-170-14-43-51-168l-11-36-12 23q-13 24-15 88-4 98 19 158 78 220 313 268z" horiz-adv-x="1202" />

<glyph glyph-name="zero" unicode="&#x30;" d="M2139-18z m0-82z m-1623 505q25 42 30 37 4-3 49-158l46-156-22-17q-22-18-84-39-66-23-102-27-97-12-213 41-42 19-50 29t-4 26l43 151q43 148 46 145 11 9 37-38 7-13 17-30 15-26 42-52 11-11 36-14 36-5 53 8 4 3 37 35 8 8 39 59z m-184 435q60 12 119 1 100-20 184-76 41-34 64-59 48-70 57-87 2-4 25-64 8-21 10-99 1-41-2-80-4-45-9-50t-16 16q-14 29-55 165-43 142-59 168-14 23-44 34-53 20-107-52-35-47-69-89l-31-39-24 30-24 32q-11 21-48 63t-53 52-44 9-53-38q-21-31-64-170l-62-204-12 23q-13 25-15 88-3 98 19 158 79 221 313 268z m304-892q-7 4-14 4t-14-8-7-18v-58h-24v102h24v-9q9 11 26 11 12 0 19-4z m-201-70l8 18q8-8 22-8t13 9q0 6-3 9-7 5-16 8-25 11-25 29 0 13 11 20t23 7q17 0 28-7l-6-18q-7 7-21 7-10 0-11-10 0-5 3-6l17-8q14-7 18-12 6-7 6-17 0-13-10-21t-27-8q-12 0-16 1-7 2-14 7z m-238-8v62q0 20-18 20-5 0-10-3-2-1-5-5l-2-2v-72h-23v66q0 7-4 11t-13 5q-5 0-10-4-7-6-7-7v-71h-23v99h16l4-8q10 10 25 10 20 0 30-11 3 5 12 8t16 3q16 0 26-9t9-27v-65h-23z m226 42q2 6 2 13 0 20-13 34-12 12-36 13-21 0-35-14-15-16-14-41t14-37 36-13 37 10l-10 18q-6-6-24-8-12-1-21 6-7 6-8 19h72z m-71 18q4 22 26 22t23-22h-49z m-59-52q1-1 3-4t2-4q5-3 9-3 7-1 9 1l6 6q-8 6-8 25v21q0 28-11 39-13 13-33 11-16-1-28-6l5-18q12 4 22 4 22 0 22-17l-10 1q-22 2-35-10t-14-27 9-23q5-4 25-7 6-1 16 2t11 9z m-2 37v-9q0-20-21-21-15-1-15 13 0 18 27 18 4 0 9-1z m226 36v-54q0-12 7-20t20-8q5 0 14-7t10-5v19q-2-2-8 4t-9 6q-7 0-10 4t-3 13v48h24v19h-24v25l-21-8v-17h-10v-19h10z m127-32q0-21 13-37t35-14 33 14q15 16 13 37-2 24-13 38t-33 13-35-14-13-37z m24 0q2 15 7 23t17 9 17-8 5-24-6-23-17-9q-26 2-23 32z" horiz-adv-x="791" />

<glyph glyph-name="one" unicode="&#x31;" d="M2139-18z m0-82z m-1513 90v-97q0-27 20-27 10 0 16 12-15 6-15 28l2 91z m-36-110q2-6 5-8 5-3 10-4t7 1l6 6q-8 6-8 25v21q0 29-10 39t-33 10q-16-1-28-6l5-17q12 4 22 4 23 0 21-18-4 2-9 2-23 2-36-10t-13-27 9-22 25-8q9 0 18 3t9 9z m-2 36v-9q0-20-21-21-15-1-15 13 0 18 27 18 4 0 9-1z m-360-37q0-1 1-2 2-5 5-7t8-3q7 0 8 1 4 4 7 6-8 5-8 25v21q0 30-11 41-9 9-33 8-16-1-28-6l5-17q12 4 22 4 22 0 22-18-4 2-10 2-23 2-36-9t-13-28 9-22q11-6 25-8 7-1 17 3t10 9z m-2 36v-9q0-20-21-21-15-1-15 15t27 16q4 0 9-1z m-105 76v-96q0-30 20-28 9 1 16 13-15 6-15 28l2 90z m161-116q11-7 22-7 21 0 34 13t12 36-12 34q-15 13-33 13-9 0-19-5v37l-21-6v-122h12z m4 65q5 6 15 6 27-2 27-29 0-14-7-23-9-11-22-8-9 2-13 6v48z m73-22q0-24 12-37t35-13 33 13q13 17 12 37 0 23-12 37t-34 13-34-14-12-36v0z m23 0q2 17 6 23 5 8 17 8 23 0 23-31 0-15-6-24t-17-8q-27 0-23 32z m136 29q-5 4-13 4t-15-8-7-18v-58h-24v102h24v-9q11 11 27 11 12 0 18-3z m0 840q11 29 34 45 25 17 63 10 35-7 53-45 17-36-1-74-10-21-34-34-27-14-52-11-36 5-55 37-22 36-8 72z m-334-133q-4 47 34 81 40 36 95 24 18-4 34-17 17-15 23-29 23-56-27-100t-118-17q-14 6-28 25-11 15-13 33z m148-391l22 64 33 96q49 143 56 159 15 38 50 56 40 21 85 1 16-7 26-20 13-15 16-30 4-17-1-35-7-29-9-35l-44-151q-9-31-47-146-10-30-26-49-13-15-45-29-24-10-43-7-23 4-42 12-12 5-25 24t-15 35q-1 10 3 28z m493 221q-61-17-94 24-35 43-4 97 10 18 34 32 20 12 55 6t54-33q21-30 9-70-6-20-19-34-15-17-35-22z m-525-16q-9-48-39-127l-47-124q-18-48-52-69-38-25-93-18-37 5-55 35t-8 70q26 69 51 128 43 104 54 129 9 20 32 35 29 18 45 22l4 1 8 1 18-2q43-5 64-23 25-22 18-58z m286-351q4 40 28 119l46 154q3 10 6 14 14 24 44 38t66 1q25-9 44-31t10-56l-32-136q-18-76-27-109-11-39-49-62t-86-7q-18 6-27 15-10 12-16 25-5 9-6 17t-1 18z" horiz-adv-x="883" />

<glyph glyph-name="two" unicode="&#x32;" d="M2142-18z m0-82z m-1712 409h-6l-5-2q-3-1-10-9-9-12-6-19l4-8q4-8 16-11 19-4 38-9 21-6 36-9l51-13q27-7 30-7t5-1h9q2 1 5 1l3 1 1 1 6 3q4 2 6 6l1 2q0 2 1 2t0 0v1l1 2q1 2 1 7v6q-1 2 0 4t-5 6l-4 4-8 5h-2q0 1-20 5l-8 2q-28 6-39 9l-14 3-12 2-42 10q-25 6-29 6h-4z m210 7q1 0 1 1v6l1 4-1 1v3l-3 5q-1 2-3 4l-3 3-6 4-17 3q-10 3-16 3l-2 1-8 1q-5 2-17 3l-34 7q-9 1-25 5l-41 7-13 3-6-1q-5-1-8-4l-6-3q0-2-1-3t-3-5-3-4v-15q2-1 4-6t6-6l10-3 86-19q11 0 21-3l7-2q11-3 21-5l6-1q6-2 10-2t8-1l8-2q6-1 15 6 6 4 8 8z m-437 56l-3-3-9-7-3-3-3-2-3-3-3-2-17-15q-27-24-17-34l4-7 3-2q3-2 5-4 4-4 13 3l14 11 4 4h1l29 25q4-2 5-7l14-41q3-8 14-19 1-1 9 1h4l8 5q3 2 4 5l1 1q0 1 2 4 4 5 2 10l-21 61-3 7q-1 2 0 4l2 3 3 2q2 2 4 3l8 7q1 0 3 2l5 5q3 1 6 4 5 5 11 9l2 2q8 6 9 8l2 4q1 2 2 11t-1 9-1 2l-2 3-7 4q-5 3-12 1t-10-5l-4-4-7-5-11-11-6-4q-2-1-4-3l-3-3-4-3-4 7-1 5-11 29q-2 5-7 10l-1 1q-6 6-8 3 0-1-4-2l-5-2q-2-2-4-2t-6-7l-2-4q-4-9-2-14l1-2q2-4 2-5t2-6l4-11 8-26q2-3 2-6-2 0-3-1z m329 269q-1 0-3-1h-2q-2-2-4-2l-9-6q0-2-2-3l-4-8-1-1v-1q-1-3-1-6 0-6 2-7t2-6l1-1q2-4 4-4t4-1h1q3-1 7-1t35-3l42-4q7 0 23-2l20-1 15-2 28-2q8-1 9 0h6q0 1 1 1l4 1q2 2 4 2t4 2l9 9q0 2 3 7t2 5v5q0 3-2 7l-2 4-7 6q-3 2-13 3l-83 6h-15l-75 5z m-309 6q0-1-1-3-2-4-2-9-3-17 16-17 10 0 11-1 10 0 18-1l17-2v-2l-1-4q-3-11-4-13l-12-42v-3l2-6q2-5 6-7l4-2h11q9 0 13 8l4 8 14 45q3 13 4 14l37-2q30-2 33 1l9 8 2 4q1 2 2 2l2 11q1 3-1 7l-1 2q-2 2-3 4-3 3-4 3h-2q-1 1-13 2l-35 2q-7 1-11 1 0 2 2 9l5 18 6 18 1 6q1 7 0 9-7 17-23 9l-4-2q-4-2-5-3l-6-6q-2-2-10-28l-5-16q-2-11-3-11l-25 1-29 2q-3 0-10-4t-7-8z m245 105l2-2q3 0 3-1v-4q1 0 1-1t1-3v-1q2 0 0-2v-1h1v-1q-1-1-1-4l-16-52q-12-39-13-41-9-33-22-73l-12-40-5-14q0-1-1-3l-2-4q0-1-1-2l-6-7q0-1-2-2l-2-2q-3-3-6-3h-2v-1h-1q0-1-1 0t-1-1h-2q0-4-3-1-1 1-1 0h-5q-1 1-36 5l-158 23-2 1-4 1q-1 0-1 1v0q-1 0-1 1t-2 2-1 1l-1 1q0 2-1 2t-2 1q2 2 0 2v3q-1 1-1 3v5l5 18 6 18 21 72q5 14 7 22 5 14 13 44l6 18q2 8 3 9v2h1l1 3 3 3q3 3 4 5t4 3l6 3v1h4v1h6q0 1 5 1h6q12-1 22-1h35l32-1h27q19 0 41-1h35q0-1 3-1h4q0-1 1-1h1q0-1 1-1h1q0-1 1-1z m48 1h1l7 3h6q2 0 2 1l45-1h63q13-1 31-1h34q9 0 22-1h44l30-1 4-1h5q0-1 1-1h2q1 0 1-1h1l5-3q0-1 1-1l6-6v-2q0-1 1-1v-1q0-1 1-1v-3q1 0 1-1v-1q2 0 0-2v-1l1-2-1-1v-1l-3-8-3-12-2-4-3-12-12-35q-1-6-2-6l-13-44-3-7-6-18q0-2-3-10l-27-85-1-5q-1-1-3-8l-2-7h-1v-1q0-1-1-1l-1-3-6-5v-1h-1l-2-3-2-1q0-2-1-2h-2q-1 0-3-1l-9-4h-1q-1-1-2 0t-2-1h-1q0-1-1 0h-3q-2-2-4 0h-8l-201 30-52 7-4 2q-4 0-4 2h-1q-1 0-1 1v0q-2 2-3 2l-5 8v3l-1 2v2q-1 0 0 1v1q-1 1 0 2v1q2 3 1 4t0 2 3 10 6 18l19 64q17 50 27 87l13 40 3 7q1 0 1 2l9 11h1z m-202-533l-6-5q0-1-2-2l-4-1q-1-1-2-1h-4l-1-1-9 1-38 10q-15 4-22 7l-21 6q-2 1-10 3l-34 9-60 18v1h-3q0 1-1 1l-2 1q-3 1-3 3t-2 3-3 6l-1 4v6q0 3 7 23l11 39 9 28q3 11 6 19l4 16 16 52q7 23 8 24l9 11 7 4h1q1 0 1 1l2 1h9l58-9 24-3 54-9 59-8 4-2q1 0 1-1h1l2-1 6-8 1-2q1 0 1-2v-3q1-1 1-3v-3q2 0 0-2l-1-3q1 0 0-1l-18-59q-4-12-7-24l-1-4q-3-6-6-16l-17-57q-14-43-15-49l-2-5v-2q0-1-1-1l-2-3z m30-21l-3 3q-2 2-2 4t-1 3l-1 2q1 0 0 1v2q-1 0 0 1t-1 0l1 2v2q-2 0 0 2v3l37 118q12 42 20 66l3 9q7 21 7 26l1 1q0 1 1 1l2 6q1 0 1 1l6 6 6 5q1 1 3 1h1v1h1q1 1 2 1h1l2 1h5q0 1 1 1v0q1 0 1-1h3q3 0 19-3l109-15 27-5q8 0 20-3l83-12 8-2 10-8q0-2 2-2t2-1v-1q1 0 1-1-2 0 0-2l2-1v-3q1 0 1-1v-1l1-2q1-2 0-2v-2l-1-1q0-1 1-1l-1-5-9-29q-7-16-7-20t-4-13l-8-27-11-32-6-21q-2-8-3-9l-13-40-6-21-14-42-5-8-2-2q-1 0-1-1l-4-3h-1l-8-4h-2l-2-1h-2l-2-1h-9l-3 1q-2 2-2 0l-17 5q-17 5-19 5-9 3-17 5l-26 8q-5 1-11 3l-13 3-7 3q-3 0-14 4l-31 8-15 5-41 11-29 9q-4 1-4 2l-9 4q0 1-1 1t-2 1z m-85 629q-68-9-112-54-41-41-61-108l-42-143q-27-93-42-175-7-39 9-76 13-30 39-57 15-16 27-22 10-5 49-18l343-114 90-35q79 2 156 49 64 38 83 87 8 20 81 241 69 206 81 246 6 20 7 36 1 9-4 31-13 62-55 97-44 37-107 38-159 0-277-5-189-8-265-18z m158-949l2-2q2-5 4-6 4-4 9-4t8 2 6 6q-8 5-8 24v21q0 29-9 39t-34 11q-17 0-29-6l5-18q12 4 22 4 22 0 22-17-4 1-10 1-22 2-35-8t-14-28q0-14 10-23t24-8q9 0 16 3t11 9z m-2 37v-10q0-20-20-20-16 0-16 13 0 21 27 18z m521-50v6q-2-4-9-6t-13-1q-20 0-30 10-11 13-11 35t14 36 30 14q11 0 19-4v36l22 5v-131h-22z m0 70q-7 6-14 6-10 0-20-10-7-7-7-23 0-26 28-26l7 2q6 2 6 3v48z m-95-58q1-4 5-8t10-4 7 1q4 1 7 7-8 3-8 24v21q0 25-11 39-9 11-33 11-16 0-28-6l5-18q12 4 22 4 21 0 22-17-4 1-10 1-22 2-35-9t-14-27q0-14 10-23t24-8q9 0 17 4t10 8z m-2 36v-9q0-19-21-20-15-1-15 13 0 24 27 18z m-92-47v6q-2-4-9-6t-13-1q-19 0-30 11t-11 34q0 20 13 36 12 14 31 14 13 0 19-5v37l22 5v-131h-22z m0 70q-5 5-14 5-13-1-19-7-7-8-8-23 0-21 28-28 4-1 7 1l6 4v48z m-86 58q6-2 9-4t3-8-3-9-9-4-9 4q-4 7-4 8 1 6 4 9 5 5 9 4z m0 0q6-2 9-4t3-8-3-9-9-4-9 4q-4 7-4 8 1 6 4 9 5 5 9 4z m-11-127v74h-12v17h33v-91h-21z m-78 127q5 0 9-3t3-9-3-9-9-4-9 4l-4 9q-2 4 4 8t9 4z m27-5v-96q0-30 20-28 9 1 16 13-15 6-15 28l2 90z m-27 5q5 0 9-3t3-9-3-9-9-4-9 4l-4 9q-2 4 4 8t9 4z m-11-127v74h-12v18h33v-92h-21z m-87 5q8-7 22-7 21 0 34 13t12 37q0 20-13 33t-32 13q-11-1-19-6v37l-21-5v-122h12z m4 65q4 5 15 5 24 0 26-28 1-16-6-24t-22-7q-8 0-13 6v48z m-184 12v-49q0-16 8-24t23-8q13-1 22 2v21q-6-4-15-4t-12 4-3 15v43h27v19h-27v28l-23-8v-20h-11v-19h11z m-38-82h22v64q0 19-9 29t-28 10-26-11l-4 9h-16v-101h22v75q0 4 9 7 6 2 10 2 12 0 15-5 5-8 5-18v-61z m-167 51q0-23 14-37t35-14 34 14 12 38-11 36-36 14q-20 1-34-14t-14-37z m24 0q2 16 7 24t17 8q26 2 23-32-1-15-5-24t-18-8q-26-1-24 32v0z m-26 43q-11 9-30 10-25 1-38-14t-17-39q2-26 14-38t36-13q12 0 18 2l3 1 15 7-9 18q-11-8-23-8-32-1-30 31 1 14 8 24 6 8 21 9t22-8z" horiz-adv-x="967" />

<glyph glyph-name="three" unicode="&#x33;" d="M2147-18z m0-82z m-1496-22q3-7 5-8 6-4 9-4t7 2h1q10 0 6 6-8 14-8 25v21q0 29-10 39t-33 10q-16 0-28-6l5-18q9 4 21 5 22 1 22-18l-9 2q-17 4-37-10-11-8-12-27-1-13 9-22 8-7 25-8 11 0 16 2 8 4 11 9z m-2 37v-9q0-21-21-21-15 0-15 13 0 21 27 18z m-122 34v-49q0-14 8-23t23-9q13-1 23 2v22q-7-5-16-5t-11 4q-4 5-4 15v43h27v19h-27v29l-23-9v-20h-11v-19h11z m-42-82h22v65q0 19-8 27t-27 11-28-11l-4 9h-16v-101h22v75q0 1 9 7 3 2 10 2 13 0 17-6t3-17v-61z m-74 45q0 2 1 5l1 8q2 16-14 34-11 12-35 13-20 1-35-15-16-18-16-40t15-37q13-13 36-13t37 10l-9 18q-6-6-25-8-12-1-21 6-7 6-8 19h73z m-72 18q4 22 26 23t24-23h-50z m-37 17q-7 5-15 5t-14-8-6-18v-58h-24v102h24v-10q9 12 26 12 11 0 19-4z m179 828q15 3 32 3t28-4 29-21 78-84l156-174 87-95q45-49 58-68 8-12 12-39 3-17-5-39-5-14-24-34-24-25-39-34-21-12-46-18-20-5-42-2t-43 9q-24 7-36 19-25 26-40 44l-171 208-47 56q-13 16-14 16-5 4-7 4-6-2-20-13l-6-5q-13-10-18-15l-267-208q-32-25-64-22t-32 7q0 1-22 21l-3 2q-8 5-12 20-5 18-2 30 2 10 4 26 1 9 10 21l14 19q3 4 17 16l71 61 124 105 73 64 113 98q23 20 54 26z m-82-408q12 2 33 1t32-11q10-7 21-18t14-23q6-19 6-32 0-8-6-36-3-14-17-32-18-22-26-27-20-13-34-18t-36-6q-50-3-75 27-10 12-14 23-7 17-7 31-1 18 2 28l10 26q3 8 17 24t22 21l27 14q7 4 25 7z" horiz-adv-x="961" />

<glyph glyph-name="four" unicode="&#x34;" d="M564-122q2-5 6-9t9-2q2-1 8 1 3 2 6 6-8 5-8 25v21q0 28-11 39-7 8-33 10-16 0-28-6l5-18q7 3 22 5 21 0 22-18l-10 2q-21 1-36-10-13-9-13-27 0-14 10-23t24-7q9-1 16 2t11 9z m-2 37v-9q0-21-21-21-15 0-15 13 0 20 27 18z m43 75v-96q0-16 5-23t15-5q7 1 17 13-16 6-16 28l2 90z m-112-29q-8 8-30 10t-40-15q-14-16-14-39t13-36q18-14 36-14t18 2l12 6 6 2-9 19q-12-9-22-9-32 0-30 31 0 14 7 25 6 8 21 8 12 1 22-7z m-163-85l8 18q11-8 24-8t12 9q1 5-4 9-1 2-8 6l-7 3q-25 10-25 29-1 11 9 19t25 8 29-7l-7-18q-7 5-21 7-12-1-12-10 0-2 4-6 7-5 17-8 13-6 19-13t5-17q0-14-9-22t-28-7q-12 0-15 1t-11 5z m-26 117q6-2 9-4t3-8-3-9-9-4-9 4-4 9 4 8 9 4z m0 0q6-2 9-4t3-8-3-9-9-4-9 4-4 9 4 8 9 4z m-11-127v74h-12v18h33v-92h-21z m-24 108q-3 1-11 3-6 0-10-6-9-10-4-12 1-1 0-3h19v-17h-19v-74h-21v74h-13v17h13q0 19 10 27 11 11 24 11l3-1q9-1 15-3z m57 861q2 1 8 1l7 1q13 0 20-1 17 0 21-1l14-3q5-2 11-6l2-1q6-4 9-7 12-11 17-23t3-31q0-14-4-25l-92-280-69-204-41-128q-1-4-9-18l-10-18q-5-10-22-23t-30-21q-25-13-53-14t-52 7q-14 5-23 13-13 10-20 21-8 15-11 34-4 23 0 42 2 11 7 27l129 342 28 77 17 45q5 18 12 35l12 32 4 8q4 12 16 36 5 11 12 24l1 1q9 12 23 26 12 13 24 20 17 9 39 12z m236-16q15 3 16 3 14 0 39-1l90-2q53-2 75-7 18-4 38-20 5-3 15-15l1-1q5-6 10-16 2-5 4-20v-24q-1-11-3-16-4-6-9-19t-13-22q-11-13-20-19-16-14-26-17t-34-3l-147 5q-23 0-39 2-13 1-25 6-28 8-41 26t-14 48q0 20 1 24 4 13 9 23t11 18q11 18 28 30 25 16 34 17z m-90-298q6 1 11 2h20l20-1 45-4q11 0 14-1l92-8 15-2q21-4 36-11t26-20q18-18 22-31 4-8 4-39 0-19-3-27t-12-27l-3-6q-3-7-5-10-8-10-14-16l-26-22q-1-2-6-4l-2-2-13-5q-8-3-11-2-8 0-20 1l-180 13q-29 2-34 4l-17 5q-12 4-16 7-20 10-31 33t-9 54q3 49 41 86 30 29 56 33z" horiz-adv-x="849" />

<glyph glyph-name="five" unicode="&#x35;" d="M855-125l8 17q10-8 23-8t13 10q0 5-4 9-7 5-16 8-25 11-25 29 0 13 11 20t23 7 29-7l6-30q-24 19-34 19t-11-10q0-5 4-7l16-8q12-6 19-11 5-8 5-18 0-14-10-22t-27-7q-7 0-14 2t-16 7z m-13 38q0 1 1 3l1 9q0 18-13 32-10 12-33 12-20 0-34-15t-13-36q0-23 13-36t35-12 34 9l-9 18q-6-8-23-8-11-2-19 6-6 5-8 18h68z m-67 16q5 21 23 21 21 2 23-21h-46z m-56-60v5l-6-4-5-2-11-1q-20 0-31 12t-11 32 14 36 31 15q11 0 19-4v37l21 5v-131h-21z m0 69q-7 6-15 6-11 0-18-9t-8-23q0-24 27-27 5 0 9 2t5 4v47z m-95-58q2-4 5-8 6-4 9-4t7 2h1q3 2 6 6-8 5-8 25v21q1 26-10 39-8 8-33 10-16 0-28-6l5-18q6 3 21 5 22 0 22-18l-9 2q-21 1-37-10-13-10-13-26t10-23q9-9 25-8 8-2 16 2t11 9z m-3 37v-9q0-21-20-21-15 0-16 13 1 19 28 18z m-91-47v5q-4-4-9-5-8-2-13-2-19 0-31 12t-10 34q-1 20 12 34t32 15q11 0 19-4v36l21 6v-131h-21z m0 69q-6 6-14 6-12 0-19-8t-8-23q0-26 27-28 5 0 9 2t5 3v48z m-75-27q2 10 2 12 0 16-13 32-10 12-33 12-19 1-33-14t-15-36q2-25 14-37t35-12 34 10l-9 17q-8-8-23-8-9-1-20 6-5 5-7 18h68z m-68 17q5 20 24 21 22 0 23-21h-47z m-50 66q7-2 9-4t4-8q-2-7-4-10t-8-3-9 4-4 9 4 9 8 3z m0 0q7-2 9-4t4-8q-2-7-4-10t-8-3-9 4-4 9 4 9 8 3z m-11-127v74h-11v18h33v-92h-22z m-211 53q-1-21 12-38 14-14 36-14t34 14 12 37-12 38q-11 12-35 14-20 0-34-15t-13-36z m24 0q0 14 6 23t17 9q26 0 23-32-1-16-6-25t-17-8q-26-2-23 33z m165 41q-11 9-30 9-25 3-39-14-15-15-15-39t14-37 36-13q12 0 18 2l17 8-8 18q-11-7-23-9-16 1-23 8t-7 24q0 13 8 24 5 8 21 9 13 0 22-8z m-265-84l8 18q10-10 22-8 13-1 13 9 0 6-4 9t-15 8q-25 12-25 29 0 14 9 21t26 6 27-7l-6-17q-7 6-21 6-11 0-11-9-1-3 3-7 7-5 17-8 14-4 19-12t5-17q0-13-9-21t-28-8q-12 0-17 1t-13 7z m49 747q-57 45-42 129t100 84q163-23 355-56 178-31 349-57 27-6 49-22t35-30q40-38 35-108-3-68-43-100-19-13-42-20t-52-5l-46 11q-166 38-245 57-89 22-279 66l-17 4q-91 21-121 29-22 8-36 18z m813-364q43-48 33-123t-66-99q-64-18-119 0l-107 39q-121 39-281 98l-280 102q-34 15-57 40-24 27-24 71 5 63 36 97t93 22l338-94 332-94q38-7 60-22 23-19 42-37z m22-331z" horiz-adv-x="969" />

<glyph glyph-name="six" unicode="&#x36;" d="M822-4l-14-18h-11l10 18h15z m-124-33q-8 8-31 10t-38-14-15-40 13-36q18-14 37-13 16 0 19 1t11 6l5 2-8 19q-13-9-23-9-32 0-30 31 0 12 8 25 5 8 21 8 10 1 22-7z m-117-82q0-1 1-2 2-5 5-7t8-3q7 0 8 1l6 6q-7 6-7 25v21q0 30-11 41t-33 8q-16-1-28-6l5-17q12 4 22 4 22 0 22-17l-10 1q-23 2-36-9t-13-28 9-22 25-8q9 0 16 3 10 5 11 9z m-2 36v-9q0-18-21-21-15-1-15 15t27 16q4 0 9-1z m-70 31q-5 4-13 4t-15-7-7-18v-58h-24v102h24v-10q12 12 27 12t18-4z m-98-79v9q-3-3-14-7-7-3-16-3-35 0-35 37v66h24v-64q0-20 17-20 7 0 15 5 7 3 9 9v70h24v-102h-24z m-129 82v-49q0-16 8-24t22-9 23 3v21q-6-4-15-4t-12 4-3 15v43h27v19h-27v28l-23-8v-20h-12v-19h12z m636-82h22v63q0 18-10 28-7 8-26 10-16 1-26-10l-4 8h-16v-99h22v73q2 3 8 6t11 4q12-1 16-6t3-17v-60z m-163 48q0-24 12-36 14-14 36-14t33 14 12 38q0 20-12 34t-34 14q-20 1-34-14-13-13-13-36v0z m24 0q0 15 6 23t17 9q25 0 22-32 0-15-5-23t-18-9-17 7-5 25z m-638-35q2-5 6-9t9-2q2-1 8 1 3 2 6 6-8 5-8 25v21q0 28-10 39-8 8-33 10-17 0-29-6l5-18q6 3 22 5 21 0 22-18l-10 2q-21 2-36-10-13-9-13-27 0-14 10-23t24-7q9-1 16 2t11 9z m-2 37v-9q0-21-21-21-15 0-15 13 0 20 27 18z m120 43q-8 8-31 10t-38-15q-15-13-15-38t13-37q18-14 37-13 16 0 19 1t11 6l5 2-8 19q-13-9-23-9-32 0-30 31 0 12 8 25 5 8 21 8 10 1 22-7z m473 34q7-2 8-4 4-5 4-8t-4-10q-3-3-8-3t-9 4-4 9 4 9 9 3z m0 0q7-2 8-4 4-5 4-8t-4-10q-3-3-8-3t-9 4-4 9 4 9 9 3z m-11-127v74h-12v17h33v-91h-21z m-645 109q-4 0-9 2t-12-5q-9-13-4-13 2 0 0-2h19v-18h-18v-73h-22v73h-13v18h14q-1 17 9 27 13 11 24 10 7 0 19-3z m183 845q147 14 266 18 189 6 276 5 62-1 107-38 41-33 55-97 4-16 3-32 0-21-5-35l-81-246-81-241q-27-52-84-86-55-33-141-37-37-2-105 22l-7 2-336 112q-42 14-49 18-11 7-27 22-27 27-39 57-16 38-9 76 15 87 42 175 32 102 43 143 19 67 61 109 47 47 111 53z m-24-557q13-35 52-47t76 15l421 304 32 26q33 27 38 40 17 44-5 70t-58 31q-43 6-65-4t-55-36l-320-255q-10-8-11-8-4 0-5 3l-21 49q-9 19-29 66-15 36-32 59-9 13-25 16t-33-1q-20-4-39-23t-19-46q1-18 16-55l25-60 32-83q17-40 22-53z" horiz-adv-x="965" />

<glyph glyph-name="seven" unicode="&#x37;" d="M912-122q-2 2 3 7 2 3 7 4t8-3 3-9-3-7-7-3-7 2-4 9z m-183 116q6-2 9-5t3-8-3-9-9-3-9 4-3 8q-1 3 3 9 6 4 9 4z m0 0q6-2 9-5t3-8-3-9-9-3-9 4-3 8q-1 3 3 9 6 4 9 4z m-11-127v74h-12v17h33v-91h-21z m-608 11q-2 2 3 7 2 3 8 3 4 2 8-3t2-7q1-4-2-8t-8-3-7 2-4 9z m-13 104l-9-18q-4 4-13 8t-13 3q-19 0-29-13t-10-33 10-31 28-11q12 0 19 6v24h-17v18h39v-54q-7-7-20-10-11-4-24-4-27 0-42 17-16 19-16 46t17 46 45 18q20 0 35-12z m184-63q0-23 12-38 14-14 36-14t34 14q13 17 12 38 1 20-12 37-11 13-35 14-22 0-34-14t-13-37v0z m24 0q0 11 6 23 5 8 17 9 26 0 24-32-2-17-7-24-4-9-17-9-24-1-23 33z m-52-51v6q-4-5-9-5-10-3-13-3-20 2-30 13t-11 33 13 36q11 12 31 14 11 0 19-5v37l22 5v-131h-22z m0 70q-5 5-14 5-12 0-20-8-5-5-7-22 0-28 28-29 5 0 7 2l6 4v48z m597 9v-49q0-15 8-23t22-8 23 3v21q-8-5-16-5-5 0-11 4-3 3-3 15v42h26v21h-26v26l-23-9v-17h-11v-21h11z m-37-81h21v64q0 18-9 28-7 7-26 10-19 0-26-11l-4 9h-16v-100h22v74q0 1 5 4l3 3q6 2 10 2 12 0 16-5t4-17v-61z m-168 45q0 2 1 7l1 6q-2 20-13 33t-35 13q-20 1-35-15t-14-38q0-24 13-37t36-13 36 10l-9 18q-6-7-24-9-11 0-19 6t-9 19h71z m-70 18q3 20 25 21t23-21h-48z m-110 32q-10 8-30 9-23 1-39-14t-16-39 14-37 36-13q16 0 18 2l3 1 15 7-9 18q-12-9-23-9-31 0-29 32 0 13 7 24 6 8 21 8t22-7z m6-84q0 2 3 8 4 2 8 2t8-2 3-7-3-8-8-4-8 3q-1 1-3 8z m-158 939q47 17 111 25t127-4q70-14 130-49 51-30 100-82 21-22 38-48t29-55q31-73 33-152 2-84-27-153l-11-26-21-39-4-6q-8-12-18-23l-5-7q-10-14-18-22-9-11-27-27l-19-17-20-15-11-6q-6-6-10-6v-1q0-1-2-1l-5-3q-33-20-56-29-28-11-64-19t-63-10q-47-2-73 0h-3q-22 3-45 8l-10 2q-15 3-36 10-88 28-153 88-61 56-100 145-18 41-25 93-7 56 1 111t22 89q14 37 42 77 14 21 33 42 21 24 39 38 21 17 27 21l18 12 11 8 33 17q22 11 25 12l3 1z m114-74q-3 0-8-2l-9-2-15-5-32-14q-11-4-28-16l-3-2q-9-6-11-8l-3-2-9-9q-3-2-19-19l-17-18q-8-9-18-25l-16-25-4-8q0-2-1-2t-5-12l-5-17q-4-13-2-19 4-14 4-17t3-7l8-11q2 0 9-7 2-2 13-7l97-46q35-14 53-23 10-5 19-5h1q12 0 17 1 20 7 31 22 15 18 8 42-6 21-30 34l-58 31-21 10q-8 4-8 6l10 12q11 11 17 19 9 12 23 22 9 7 11 8l10 6 5 2q20 8 34 10 18 2 36-2 32-8 50-17 15-8 37-30 6-6 20-27 8-12 14-29 5-15 6-25 1-7 1-32v-25h1l-1-3q-1 1-1-2l-2-5-5-26q-2-8-8-21-4-8-4-11l-2-2-1-2q-3-8-7-15l-4-7q-9-16-10-17-16-25-33-41-22-20-44-30l-22-10q-9-4-25-7-36-6-68 4-45 14-54 23t-16 11q-4 2-10 8l-5 4-9 12q-3 4-13 20l-8 11q-18 27-22 32l-4 5q-9 11-17 14-15 6-33 3-13-2-29-14-8-6-8-8v0q0-1-1-1l-4-10q-2-3-2-8l-1-15v-14l2-10q22-55 65-92 48-42 97-63 57-25 129-26 23 0 48 3 29 3 40 9 4 2 9 3 21 7 43 18 25 13 39 25l20 17q18 15 22 20l8 10q6 7 8 10l4 3q2 2 2 3l1 3q6 6 10 14 1 2 4 5 1 1 1 3l1 2q13 14 32 66 15 40 20 74 8 68-9 119-16 47-48 88-22 28-58 54t-74 41q-51 19-76 17-43-4-83-4z" horiz-adv-x="933" />

<glyph glyph-name="eight" unicode="&#x38;" d="M581-41v-45h-23v125q15 1 27 1 29 0 44-9 14-11 13-29 2-44-51-44-6 0-10 1v0z m0 60v-40q4-1 9-1 15 0 22 5t7 17q0 20-31 20-5 0-7-1z m-68-105l-34 50h-14v-50h-23v124q6 0 15 1t20 1q50 0 48-38 0-9-7-20t-17-13l38-55h-26z m-48 105v-36h9q16 0 22 4t5 15-6 14-23 3h-7z m-111 1v-29h42v-19h-42v-38h57v-20h-79v126h80v-20h-58z m-161 801q20 18 40 30t54 12q26 1 41-7 16-12 23-24 16-30 3-64-12-32-31-53-24-26-71-38t-80 20q-22 31-12 67 9 33 33 57z m273-217q-8 52 17 82 24 33 57 49 30 17 65 13t50-29q20-35 5-70t-41-58q-29-23-63-31-37-9-64 9-9 7-16 15-10 13-10 20z m389-327q-6-63-53-91-50-30-112-3-100 44-282 132l-87 42q-182 88-207 99-30 14-49 24l-6 3q-14 8-16 10-21 17-32 32t-11 44q0 43 22 72 24 31 61 31 45 0 96-24 16-8 92-39l493-200q27-10 48-31 24-24 34-44 6-13 9-27 2-19 0-30z m-77 270q23 34 54 53 34 22 82 13 24-4 39-27t9-55q-7-41-49-77-39-34-93-29-27 3-44 23-19 21-16 52l7 23q3 12 11 24z m-581-315q19 32 61 56t88 6q20-7 32-29t4-53q-11-42-44-69-36-30-81-33-48-3-68 36t8 86z" horiz-adv-x="963" />

<glyph glyph-name="nine" unicode="&#x39;" d="M272 829q-64-8-103-50-42-44-57-101l-39-132q-22-74-39-163-6-38 8-70t36-53q12-13 25-20 21-10 46-17l214-71q44-15 105-35 64-23 96-20 75 1 131 33 53 32 78 81l75 223q66 198 75 229 5 18 6 33t-3 29q-11 57-52 91t-99 34q-109 0-256-4-140-6-247-17z m175-62q13 2 27 1t21-3q20-6 30-22t6-37l-35-120q-6-17-6-20l89-11 65-6 5-1q17-2 27-6 18-6 32-17t21-25l1-3q4-9 5-14 4-24-5-43-10-23-27-35-14-10-29-14t-35-5q-10 0-29 3l-162 26q-1 1-3-3t-3-12l-35-110q-8-31-36-45t-51-10q-20 4-37 16t-27 28q-3 6-3 10l-1 14v15l36 124q-1 1-4 1l-20 4q-83 16-97 20-22 6-29 12t-10 19-1 29q4 25 18 42t36 21q6 2 14 2 5 0 38-4l27-1 5-1q5 0 6-1l46-4q8-1 8 0l19 55q23 68 29 81 11 23 19 30 13 11 24 16t31 4z m451-771z m-483-113l2-2q2-5 4-6 4-4 9-4t8 2 6 6q-8 5-8 24v21q0 29-9 39t-34 11q-17 0-29-6l5-18q12 4 22 4 22 0 22-17-4 1-10 1-22 2-35-8t-14-28q0-14 10-23t24-8q9 0 16 3t11 9z m-2 37v-10q0-20-20-20-16 0-16 13 0 21 27 18z m521-50v6q-2-4-9-6t-13-1q-20 0-30 10-11 13-11 35t14 36 30 14q11 0 19-4v36l22 5v-131h-22z m0 70q-7 6-14 6-10 0-20-10-7-7-7-23 0-26 28-26l7 2q6 2 6 3v48z m-95-58q1-4 5-8t10-4 7 1q4 1 7 7-8 3-8 24v21q0 25-11 39-9 11-33 11-16 0-28-6l5-18q12 4 22 4 21 0 22-17-4 1-10 1-22 2-35-9t-14-27q0-14 10-23t24-8q9 0 17 4t10 8z m-2 36v-9q0-19-21-20-15-1-15 13 0 24 27 18z m-92-47v6q-2-4-9-6t-13-1q-19 0-30 11t-11 34q0 20 13 36 12 14 31 14 13 0 19-5v37l22 5v-131h-22z m0 70q-5 5-14 5-13-1-19-7-7-8-8-23 0-21 28-28 4-1 7 1l6 4v48z m-86 58q6-2 9-4t3-8-3-9-9-4-9 4q-4 7-4 8 1 6 4 9 5 5 9 4z m0 0q6-2 9-4t3-8-3-9-9-4-9 4q-4 7-4 8 1 6 4 9 5 5 9 4z m-11-127v74h-12v17h33v-91h-21z m-78 127q5 0 9-3t3-9-3-9-9-4-9 4l-4 9q-2 4 4 8t9 4z m27-5v-96q0-30 20-28 9 1 16 13-15 6-15 28l2 90z m-27 5q5 0 9-3t3-9-3-9-9-4-9 4l-4 9q-2 4 4 8t9 4z m-11-127v74h-12v18h33v-92h-21z m-87 5q8-7 22-7 21 0 34 13t12 37q0 20-13 33t-32 13q-11-1-19-6v37l-21-5v-122h12z m4 65q4 5 15 5 24 0 26-28 1-16-6-24t-22-7q-8 0-13 6v48z m-184 12v-49q0-16 8-24t23-8q13-1 22 2v21q-6-4-15-4t-12 4-3 15v43h27v19h-27v28l-23-8v-20h-11v-19h11z m-38-82h22v64q0 19-9 29t-28 10-26-11l-4 9h-16v-101h22v75q0 4 9 7 6 2 10 2 12 0 15-5 5-8 5-18v-61z m-167 51q0-23 14-37t35-14 34 14 12 38-11 36-36 14q-20 1-34-14t-14-37z m24 0q2 16 7 24t17 8q26 2 23-32-1-15-5-24t-18-8q-26-1-24 32v0z m-26 43q-11 9-30 10-25 1-38-14t-17-39q2-26 14-38t36-13q12 0 18 2l3 1 15 7-9 18q-11-8-23-8-32-1-30 31 1 14 8 24 6 8 21 9t22-8z" horiz-adv-x="956" />

<glyph glyph-name="colon" unicode="&#x3a;" d="M26-95v-54h-26v145q25 2 31 2 34 0 50-11t16-33q0-50-59-50-5 0-12 1z m0 69v-46q6-1 10-1 18 0 26 6t8 19q0 23-36 23-4 0-8-1z m76-69q0 24 14 39t37 15 37-15 13-40-13-40-37-15-37 15-14 41z m26 0q0-35 25-35 12 0 18 9t6 26q0 34-24 34-12 0-18-10t-7-24z m157 29q-7 5-15 5t-14-8-7-19v-61h-25v106h25v-9q10 11 27 11 12 0 20-3z m29 3h-12v20h12v22l25 9v-31h29v-20h-29v-46q0-11 4-16t13-4 16 4v-23q-9-3-25-3t-24 9-9 26v53z m136-76q-4-4-12-8t-17-4q-17 0-27 8t-10 26 14 28 39 10q5 0 10-1 0 19-23 19-15 0-24-5l-4 20q12 5 29 5 25 0 36-11t11-41v-23q0-22 10-27-4-5-8-7t-9-1-9 4-6 8z m-2 40q-6 2-10 2-29 0-29-19 0-15 16-15 23 0 23 22v10z m56 96l25 31v-144q-1-20 11-24-5-11-20-11t-16 23v125z m178-146v67q0 21-18 21-6 0-11-3-7-5-7-8v-77h-25v70q0 8-5 13t-13 5q-5 0-11-4-8-6-8-7v-77h-25v106h18l4-9q11 12 27 11 22 1 32-11 5 5 14 8t16 3q24 1 27-10l10-28v-70h-25z m111 10q-3-4-11-8t-18-4q-18 0-27 9-10 7-10 25t14 28q11 9 39 10 4 1 11-1 0 19-24 19-14 0-23-5l-6 20q14 6 31 5 24 1 36-11t11-41v-23q0-22 8-27-3-4-7-6t-9-2-9 4-6 8z m-2 40q-7 2-10 2-29 0-29-19 0-15 17-15 22 0 22 22v10z m44-43l10 20q11-9 26-9t13 10q1 6-4 10t-17 9q-28 12-28 33 0 13 11 21t27 8 31-8l-7-20q-8 8-22 8t-14-10q0-5 5-9t18-8 21-14 5-18q1-16-11-23-11-9-29-9-11 0-17 2t-18 7z m-256 535q28 44 31 37 2-5 49-163l48-161-22-16q-29-21-87-41-64-22-105-27-102-13-220 41-44 20-51 29t-4 28 44 156q45 153 48 150 17 14 37-40 0-1 19-31t42-53q13-12 37-15 28-4 55 9 17 8 39 36z m-190 447q62 14 123 2 99-19 190-79 50-41 65-61 41-64 58-88l27-67q7-18 10-102 1-37-2-83-3-43-10-51-6-6-16 17t-56 170-61 173-46 35q-54 19-110-54l-71-92-32-40-25 31q-23 28-25 33-10 21-49 65t-55 53-44 10-55-40-66-175-53-172l-11-38-13 23q-13 22-15 92-3 103 19 163 80 220 323 275z" horiz-adv-x="910" />

<glyph glyph-name="semicolon" unicode="&#x3b;" d="M482 28z m50 365q28 44 31 37 2-5 49-163l48-161-22-16q-29-21-87-41-64-22-105-27-102-13-220 41-44 20-51 29t-4 28 44 156q45 153 48 150 17 14 37-40 0-1 19-31t42-53q13-12 37-15 28-4 55 9 17 8 39 36z m-190 447q62 14 123 2 99-19 190-79 50-41 65-61 41-64 58-88l27-67q7-18 10-102 1-37-2-83-3-43-10-51-6-6-16 17t-56 170-61 173-46 35q-54 19-110-54l-71-92-32-40-25 31q-23 28-25 33-10 21-49 65t-55 53-44 10-55-40-66-175q-41-135-53-172l-11-38-13 23q-13 22-15 92-3 103 19 163 80 220 323 275z" horiz-adv-x="815" />

<glyph glyph-name="semicolon-1" unicode="&#x41;" d="M482 28z m50 365q28 44 31 37 2-5 49-163l48-161-22-16q-29-21-87-41-64-22-105-27-102-13-220 41-44 20-51 29t-4 28 44 156q45 153 48 150 17 14 37-40 0-1 19-31t42-53q13-12 37-15 28-4 55 9 17 8 39 36z m-190 447q62 14 123 2 99-19 190-79 50-41 65-61 41-64 58-88l27-67q7-18 10-102 1-37-2-83-3-43-10-51-6-6-16 17t-56 170-61 173-46 35q-54 19-110-54l-71-92-32-40-25 31q-23 28-25 33-10 21-49 65t-55 53-44 10-55-40-66-175q-41-135-53-172l-11-38-13 23q-13 22-15 92-3 103 19 163 80 220 323 275z" horiz-adv-x="815" />

<glyph glyph-name="B" unicode="&#x42;" d="M595-122q11-7 22-7 21 0 34 13t12 36-12 34q-15 13-33 13-7 0-17-5v37l-23-6v-122h12z m4 65q5 6 15 5 26 0 27-28 0-14-7-23t-22-8q-9 2-13 6v48z m-55-60q1-4 5-8t10-4 7 1q4 1 7 7-8 3-8 24v21q0 29-11 39-7 9-33 11-16 0-28-6l5-18q12 4 22 4 21 0 22-17-4 1-10 1-22 2-35-9t-14-27q0-14 10-23t24-8q9 0 17 4t10 8z m-2 36v-9q0-21-21-20-15-1-15 13 0 20 27 18z m-99 76v-96q0-30 20-28 9 1 16 13-15 6-15 28l2 90z m-77-111l2-2q2-5 4-6 4-4 9-4 2 0 8 2 3 2 6 6-8 5-8 24v21q0 29-9 39t-34 11q-17 0-29-6l5-18q12 4 22 4 22 0 22-17-4 1-10 1-22 2-35-8t-14-28q0-14 10-23t24-8q9 0 16 3t11 9z m-2 37v-10q0-20-20-20-16 0-16 13 0 20 27 18z m54 77q5 0 9-3t3-9-3-9-9-4-9 4l-4 9q-2 4 4 8t9 4z m0 0q5 0 9-3t3-9-3-9-9-4-9 4l-4 9q-2 4 4 8t9 4z m-11-127v74h-12v18h33v-92h-21z m-106 96q-10 8-30 10-26 0-39-14t-16-39q2-26 14-38t36-13q10 0 18 2l3 1 15 7-9 18q-11-8-23-8-30-1-30 31 2 16 8 24t21 9 22-8z m215 819q11 29 34 45t63 10q38-9 53-45 16-34-1-74-10-21-34-34t-52-11q-37 7-55 37t-8 72z m-334-133q-4 47 34 81t95 24q20-5 34-17t23-29q21-57-27-100t-118-17q-17 10-28 25t-13 33z m148-391q7 21 22 64l33 96q36 105 56 159 14 36 50 56 38 18 85 1 16-7 26-20 13-15 16-30 2-11-1-35-5-22-9-35l-44-151q-28-92-47-146-10-30-26-49t-45-29q-20-11-43-7t-42 12q-12 5-25 24t-15 35q-1 10 3 28z m493 221q-61-17-94 24t-4 97q14 20 34 32t55 6 54-33 9-70q-6-20-19-34t-35-22z m-525-16q-8-42-39-127l-47-124q-17-47-52-69-37-24-93-18-38 6-56 35t-7 70q26 69 51 128 27 66 54 129 12 22 32 35 24 15 45 22l4 1q5 1 8 1l18-2q40-2 64-23t18-58z m286-351q4 40 28 119 23 74 36 120l10 34q3 10 6 14 14 24 44 38 28 13 66 1 27-11 44-31 19-23 10-56l-32-136q-19-79-27-109-10-37-49-62-37-22-86-7-18 6-27 15-10 12-16 25-5 9-6 16-1 4-1 19z" horiz-adv-x="880" />

<glyph glyph-name="C" unicode="&#x43;" d="M287-116l2-2q2-5 4-6 4-4 9-4 2 0 8 2 3 2 6 6-8 5-8 24v21q0 29-9 39t-34 11q-17 0-29-6l5-18q12 4 22 4 22 0 22-17-4 1-10 1-22 2-35-8t-14-28q0-14 10-23t24-8q9 0 16 3t11 9z m-2 37v-10q0-20-20-20-16 0-16 13 0 20 27 18z m54 77q5 0 9-3t3-9-3-9-9-4-9 4l-4 9q-2 4 4 8t9 4z m0 0q5 0 9-3t3-9-3-9-9-4-9 4l-4 9q-2 4 4 8t9 4z m-11-127v74h-12v18h33v-92h-21z m-106 96q-10 8-30 10-26 0-39-14t-16-39q2-26 14-38t36-13q10 0 18 2l3 1 15 7-9 18q-11-8-23-8-30-1-30 31 2 16 8 24t21 9 22-8z m208 334h-6l-5-2q-6-4-10-9-9-12-6-19l4-8q0-8 16-11 19-5 38-9 21-6 36-9l51-13q27-7 30-7t5-1h9q2 1 5 1l3 1 1 1 6 3q5 3 6 6l1 2q0 2 1 2t0 0v1l1 2q1 1 1 7v6q-1 2 0 3 0 3-5 7l-4 4-8 5h-2q0 1-20 5l-8 2q-28 6-39 9l-14 3-12 2-42 10q-27 6-29 6h-4z m210 7q1 0 1 1v6l1 4-1 1v3l-1 2q0 1-1 1l-1 2q0 3-3 4l-3 3-6 4-17 3q-10 3-16 3l-2 1-8 1q-5 2-17 3l-34 7q-9 1-25 5l-41 7-13 3-6-1q-6-2-8-4l-6-3q0-2-1-3t-3-5-3-4v-15q2-1 4-6t6-6l6-2q1-1 4-1l77-17q3 0 9-2 3 0 21-3l7-2q9-3 21-5l6-1q6-2 10-2t8-1l8-2q6-1 15 6t8 8z m-437 56l-3-3-9-7-3-3-3-2-3-3-3-2-17-15q-26-20-17-34 2-2 2-3l2-4 3-2q1 0 5-4t13 3l14 11 4 4h1l29 25q5-3 5-7l14-41q0-11 14-19 4 0 9 1h4l8 5q3 2 4 5l1 1q0 1 2 4t2 10l-2 6q0 2-1 3l-18 52-3 7q-1 3 0 4l2 3 3 2q1 0 4 3l8 7q1 0 3 2l5 5q3 1 6 4 5 5 11 9l2 2q8 6 9 8l2 4q1 2 2 11t-1 9-1 2l-2 3-7 4q-3 3-11 1-5-1-11-5l-4-4-4-3q-2-2-3-2l-5-5q-3-2-7-6-2-1-5-4-2-1-4-3l-3-3-4-3q-1 0-3 5l-1 2-1 5q0 1-1 3l-10 26q0 4-7 10l-1 1q-7 4-8 3t-4-2l-5-2q-2-2-4-2t-6-7l-2-4q-5-11-2-14l1-2q1-4 2-5t2-6 4-11q0-4 2-6l6-20q2-3 2-6-2 0-3-1z m329 269q-1 0-3-1h-2q-2-2-4-2l-9-6q0-2-2-3l-4-8q0-1-1-1v-1q-1-3-1-6 0-6 2-7t2-6l1-1q2-4 4-4t4-1h1q3-1 7-1t35-3l42-4q7 0 23-2l20-1 15-2q9 0 15-1l13-1q5-1 9 0h6q0 1 1 1l4 1q2 2 4 2t4 2l9 9q0 2 3 7t2 5v5q2 3-2 7l-2 4-7 6q-3 3-13 3l-72 5q-9 0-11 1h-15q-11 2-43 3l-32 2z m-309 6q0-1-1-3-2-4-2-9-3-15 16-17 10 0 11-1 7 0 18-1l17-2v-2l-1-4q-1-6-4-13l-9-31q-3-9-3-11v-3l2-6q1-5 6-7l4-2h11q8 0 13 8l4 8 14 45q3 13 4 14t5 0l32-2q29-3 33 1l9 8 2 4q1 2 2 2l2 11q0 6-1 7l-1 2q-2 2-3 4-3 3-4 3h-2q-2 2-13 2l-35 2q-7 1-11 1 0 4 2 9l5 18 6 18 1 6q1 7 0 9-6 15-23 9l-4-2q-4-2-5-3l-6-6q-4-9-10-28l-5-16q-2-10-3-11l-25 1-29 2q-6-2-10-5-7-4-7-7z m245 105l2-2q3 0 3-1v-4q1 0 1-1t1-3v-1q2 0 0-2v-1h1v-1q-1-1-1-4l-16-52q-8-28-13-41-9-33-22-73l-12-40-5-14q0-3-1-3l-2-4q0-2-1-2l-5-6q0-1-1-1v0q0-1-2-2l-2-2q-4-3-6-3h-2v-1h-1q0-1-1 0t-1-1h-2q0-1-3-1-1 1-1 0h-5q-1 1-36 5l-158 23-2 1-4 1q-1 0-1 1v0q-1 0-1 1t-2 2-1 1l-1 1q0 2-1 2t-2 1q2 2 0 2v3q-1 1-1 3v5l5 18 6 18 21 72q5 14 7 22 5 14 13 44l6 18q2 8 3 9v2h1l1 3 3 3q3 3 3 4 1 3 5 4l6 3v1h4v1h6q0 1 5 1h6q12-1 22-1h35l32-1h27q19 0 41-1h35q0-1 3-1h4q0-1 1-1h1q0-1 1-1h1q0-1 1-1z m48 1h1l5 2q2 0 2 1h6q2 0 2 1l45-1h63q13-1 31-1h34q9 0 22-1h44l30-1 4-1h5q0-1 1-1h2q1 0 1-1h1l2-1q0-1 1-1l2-1q0-1 1-1l6-6v-2q0-1 1-1v-1q0-1 1-1v-3q1 0 1-1v-1q2 0 0-2v-1q1-1 1-2l-1-1q-1 0 0-1l-3-8-3-12-2-4-3-12-12-35q-1-6-2-6l-13-44-3-7-6-18q0-2-3-10l-3-10q-3-11-11-35l-13-40-1-5q-1-1-3-8l-2-7h-1v-1q0-1-1-1l-1-3q0-1-1-1l-5-4v-1h-1l-2-3-2-1q0-1-1-2h-2q-2 0-3-1l-9-4h-1q-1-1-2 0t-2-1h-1q0-1-1 0h-3q-2-2-4 0h-8l-201 30-52 7-4 2q-4 0-4 2h-1q-1 0-1 1v0q-2 2-3 2l-5 8v3l-1 2v2q-1 0 0 1v1q-1 1 0 2v1q2 3 1 4t0 2 3 10 6 18l19 64q17 50 27 87l13 40q0 2 1 3l2 4q1 0 1 2l3 4q1 0 1 1l5 6h1z m-202-533l-6-5q0-2-2-2l-4-1q-1-1-2-1h-4l-1-1-9 1-38 10q-9 2-22 7l-21 6q-2 0-10 3l-34 9-60 18v1h-3q0 1-1 1l-2 1q-3 0-3 2t-2 4-3 6l-1 4v6q0 3 7 23l11 39 9 28q3 11 6 19l4 16 16 52q6 22 8 24l9 11 7 4h1q1 0 1 1l2 1h9q1-1 6-1l52-8q9-2 24-3l54-9 59-8 4-2q1 0 1-1h1l2-1q0-1 2-3l4-5 1-2q1 0 1-2v-3q1-1 1-3v-3q2 0 0-2l-1-3q1 0 0-1l-18-59q-4-12-7-24l-1-4q-4-9-6-16l-17-57q-14-43-15-49l-2-5v-2q0-1-1-1l-2-3z m30-21l-3 3q-2 0-2 3t-1 4l-1 2q1 0 0 1v2q-1 0 0 1t-1 0l1 2v2q-2 0 0 2v3l37 118q8 28 20 66l3 9q7 22 7 26l1 1q0 1 1 1l2 6q1 0 1 1l6 6 6 5q2 1 3 1h1v1h1q1 1 2 1h1l2 1h5q0 1 1 1v0q1 0 1-1h3q3 0 19-3l31-4 55-8q8-2 23-3l27-5q8 0 20-3l75-11q5 0 6-1h2l8-2 10-8q0-2 2-2t2-1v-1q1 0 1-1-2 0 0-2l2-1v-3q1 0 1-1v-1l1-2q1-2 0-2v-2l-1-1q0-1 1-1l-1-5-9-29q-5-17-7-20 0-4-4-13l-8-27-11-32-6-21q-1-6-3-9l-13-40q-3-9-6-21l-14-42-1-2q0-1-1-1l-1-2q0-1-1-1l-1-2q0-1-1-1l-1-1q-1 0-1-1l-3-2q-1 0-1-1h-1l-8-4h-2l-2-1h-2l-2-1h-9l-3 1q-2 2-2 0l-17 5q-17 5-19 5-9 3-17 5l-16 5q-2 0-10 3t-11 3l-13 3-7 3q-3 0-14 4l-31 8-15 5-41 11-29 9q-4 0-4 2l-9 4q0 1-1 1t-2 1z m-85 629q-68-9-112-54-42-42-61-108l-42-143q-24-83-42-175-6-41 9-76t39-57q10-13 27-22 13-7 49-18l231-77q26-8 105-35l7-2q71-25 104-22 83 1 142 36t83 87q15 40 81 241 69 206 81 246 6 20 7 36t-4 31q-11 60-55 97t-107 38q-117 0-277-5-142-6-265-18z m520-936l2-2q2-5 4-6 4-4 9-4 2 0 8 2 3 2 6 6-8 5-8 24v21q0 29-9 39t-34 11q-17 0-29-6l5-18q12 4 22 4 22 0 22-17-4 1-10 1-22 2-35-8t-14-28q0-14 10-23t24-8q9 0 16 3t11 9z m-2 37v-10q0-20-20-20-16 0-16 13 0 20 27 18z m-121 34v-49q0-16 8-24t23-8q13-1 22 2v21q-6-4-15-4t-12 4-3 15v43h27v19h-27v28l-23-8v-20h-11v-19h11z m-38-82h22v64q0 19-10 29-7 8-27 10-18 0-26-11l-4 9h-16v-101h22v75q1 2 9 7 6 2 10 2 12 0 15-5 5-8 5-18v-61z m-167 51q0-23 14-37t35-14 34 14 12 37-12 38q-13 13-35 13-20 1-34-14t-14-37z m24 0q2 16 7 24t17 8q26 2 23-32-1-15-6-24t-17-8q-26-2-24 32v0z m-26 43q-10 8-30 10-26 0-39-14t-16-39q2-26 14-38t36-13q10 0 18 2l3 1 15 7-9 18q-11-8-23-8-30-1-30 31 2 16 8 24t21 9 22-8z" horiz-adv-x="966" />

<glyph glyph-name="D" unicode="&#x44;" d="M495 715q15 3 33 3t28-5q9-3 30-21 17-15 81-87l161-178 90-98q47-52 59-71 8-11 13-40 3-17-5-40-4-13-24-35t-42-35q-24-14-46-18t-44-2q-25 1-45 8t-36 20q-25 25-42 46l-101 122-26 32q-25 30-49 60l-57 69q-5 5-5 6-6 3-8 3-6-2-20-13l-301-235q-34-26-66-23-38 3-33 8l-26 23q-9 8-12 21-2 7-2 31 0 9 4 27 4 11 11 21l14 20q2 3 9 9l8 8 74 62 106 90q19 16 21 19l10 8 54 46 23 21 105 91q25 24 56 27z m-85-420q12 2 34 0 17-3 33-11 13-8 22-18t15-24q2-3 6-33 0-5-6-37-3-16-17-32t-28-29q-18-13-34-19t-38-6q-50-2-77 28-11 11-15 23t-7 33q0 14 2 28l3 10 7 18q5 11 18 24l23 22q12 9 27 14 10 4 32 9z" horiz-adv-x="990" />

<glyph glyph-name="E" unicode="&#x45;" d="M336 771q2 1 7 1l8 1q14 0 21-1 17 0 22-1l14-3q8-3 11-6 6-3 12-9 13-11 17-24 5-16 4-32t-5-25l-95-289-70-210-43-132q-1-3-9-19l-10-19q-4-7-24-24-15-12-30-21-27-13-54-14-30-2-54 7-11 4-25 14-12 9-20 22t-11 35 0 43q2 13 7 27l10 28 29 73 58 157 36 95 29 80q4 8 9 23l30 85q1 0 3 7l4 9q10 24 17 37 8 17 14 25 7 11 23 27 11 13 24 21 15 7 41 12z m244-16q5 1 12 2h4q2 2 40 0l93-3q54-2 77-7 19-4 39-20 9-6 16-17 7-7 11-17 2-5 4-20v-24q-1-12-3-17t-10-21q-4-13-12-22-6-8-21-19-17-14-28-17t-34-3l-52 2h-46q0 1-23 1l-30 1q-27 1-41 3-18 2-26 5-27 7-40 26t-16 51q0 20 1 25 3 12 9 23t11 19q15 21 30 31 22 16 35 18z m-94-308l12 2q1 1 20 0l21-1 46-4h14l37-4 59-5 15-2q22-4 37-11t27-22q17-15 23-31 4-9 4-41 0-19-3-27l-12-28q-6-12-9-17t-15-16l-12-12q-2 0-9-7-2-1-5-4t-9-6l-13-5q-8-3-11-2-8 0-21 1l-185 13q-22 1-36 4-7 2-18 6t-15 7q-20 9-33 34-11 23-9 56 3 51 42 88 31 29 58 34z" horiz-adv-x="875" />

<glyph glyph-name="F" unicode="&#x46;" d="M90 555q-59 47-43 132t102 86q175-25 363-57 217-37 355-59 28-5 51-21t36-32q40-39 36-109t-45-103q-19-13-41-20t-55-5q-153 35-297 69-179 43-302 71-105 25-124 31-22 6-36 17z m829-371q46-49 35-125t-68-102q-67-18-121 1-28 9-81 28l-29 11q-92 30-286 100l-287 104q-33 15-57 42-25 25-25 72 5 62 37 99t94 22l345-95 339-97q42-7 61-23 14-9 43-37z" horiz-adv-x="990" />

<glyph glyph-name="G" unicode="&#x47;" d="M259 873q147 14 266 18 189 6 276 5 62-1 107-38 41-33 55-97 4-16 3-32 0-19-5-35l-81-246-81-241q-27-52-84-86t-141-38q-35-2-105 23l-7 2-336 112q-43 14-49 18-11 7-27 22-27 27-39 57-15 38-9 76 15 87 42 175 32 102 43 143 19 67 61 109 47 47 111 53z m-24-557q13-35 52-47t76 15l421 304 32 26q32 26 38 40 17 44-5 70t-58 31q-43 6-66-4-21-9-54-36l-320-255q-10-8-11-8-4 0-5 3l-21 49q-9 19-29 66-15 36-32 59-9 13-25 16t-33-1q-20-4-39-23t-19-46q1-20 16-55l25-60 32-83q17-39 22-53z" horiz-adv-x="965" />

<glyph glyph-name="J" unicode="&#x4a;" d="M259 872q-70-9-112-53-44-48-61-109l-43-142q-23-80-41-176-6-41 9-75t38-58q13-13 27-21 23-11 50-19l231-76 112-38q70-24 104-21 81 1 142 36 57 34 83 87 12 31 81 240 71 213 81 247 6 19 7 36t-4 31q-12 61-56 98t-106 36q-118 0-277-4-150-6-265-19z m188-66q13 2 29 1t22-4q23-6 34-23t5-40l-38-130q-6-18-6-21l96-12 70-6 6-1q18-2 29-6 20-7 35-18t21-28l2-4q4-9 5-14 5-26-5-47-11-24-30-38-14-10-30-15t-39-5q-10 0-31 3l-174 28q-1 1-3-3t-4-12l-37-119q-9-34-38-48-31-16-56-12-21 5-39 18t-30 30q-4 6-4 11l-1 15v16l39 133q-1 1-4 1l-21 5q-89 17-105 21-24 7-30 13-9 7-11 22t-2 30q4 27 19 45t40 23q6 2 13 2t42-4l29-2 6-1q5 0 6-1l50-4q8-1 9 0l20 60q25 72 31 87 12 24 21 32 13 12 25 17t34 5z" horiz-adv-x="966" />

<glyph glyph-name="K" unicode="&#x4b;" d="M412 614q0 13 12 19t23 0 11-23v-127h89q13 0 18-11t0-22-18-11h-116q-3 0-7 3l-6 4q-6 6-6 14v154z m397-84q8-2 13-8t4-14v-92q0-7-4-13t-13-9l-39-9q-14-58-43-104l19-33q4-7 3-15t-6-13l-65-65q-5-5-13-6t-15 3l-32 19q-48-29-105-43l-9-39q-2-8-8-12t-14-5h-92q-7 0-13 5t-9 12l-9 39q-58 14-104 43l-33-19q-7-4-15-3t-13 6l-65 65q-5 5-6 13t3 15l19 33q-29 46-43 104l-39 9q-8 2-12 9t-5 13v92q0 7 5 14t12 8l39 9q14 57 43 105l-19 32q-4 7-3 15t6 13l65 65q5 5 13 6t15-3l33-19q46 29 104 43l9 37q2 8 9 14t13 5h92q7 0 14-5t8-14l9-37q57-14 105-43l32 19q7 4 15 3t13-6l65-65q5-5 6-13t-3-15l-19-32q29-48 43-105z m-373-274q56 0 103 28t75 75 28 103-28 103-75 75-103 28-103-28-75-75-28-103 28-103 75-75 103-28z m409-380v62q0 20-18 20-5 0-10-3-2-1-5-5l-2-2v-72h-23v66q0 7-4 11t-13 5q-5 0-10-4t-7-7v-71h-23v99h16l4-8q10 10 25 10 20 0 30-11 3 5 12 8t16 3q16 0 26-9t9-27v-65h-23z m-128 44q0 2 1 7l1 6q-2 20-13 33t-35 13q-20 1-35-15t-14-38q0-24 13-37t36-13 36 10l-9 18q-6-7-24-9-11 0-19 6t-9 19h71z m-70 18q3 20 25 21t23-21h-48z m-41-18q0 2 1 7l1 6q-2 20-13 33t-35 13q-20 1-35-15t-14-38q0-24 13-37t36-13 36 10l-9 18q-6-7-24-9-11 0-19 6t-9 19h71z m-70 18q3 20 25 21t23-21h-48z m-73 65v-97q0-29 20-27 10 0 16 12-15 6-15 28l2 91z m-41-115q2-4 5-8 6-4 9-4t7 2h1q5 2 6 6-8 5-8 25v21q1 26-10 39-8 8-33 10-16 0-28-6l5-18q6 3 21 5 22 0 22-18l-9 2q-21 1-37-10-13-10-12-27-1-13 9-22t25-8q8-2 16 2t11 9z m-2 37v-9q0-21-21-21-15 0-15 13 0 20 27 18z m-131 32v-50q0-14 8-23t23-9 22 3v21q-4-4-15-4-8-1-11 4t-4 15v43h27v19h-27v28l-23-8v-20h-11v-19h11z m-31-2q-7 5-15 5t-14-8-6-18v-58h-24v102h24v-10q9 12 26 12 11 0 19-4z m-235-34v-45h-23v125q15 1 27 1 29 0 44-9 14-11 13-29 2-44-51-44-6 0-10 1v0z m0 60v-40q4-1 9-1 15 0 22 5t7 17q0 20-31 20-5 0-7-1z m71-51q-1-21 12-38 14-14 36-14t34 14 12 37-12 38q-11 12-35 14-20 0-34-15t-13-36v0z m24 0q0 14 6 23t17 9q26 0 23-32-1-16-6-25t-17-8q-26-2-23 33z" horiz-adv-x="868" />

<glyph glyph-name="L" unicode="&#x4c;" d="M424 526q0 15 13 22t26-1 13-25v-148h104q14 0 20-13t1-25-21-13h-134q-8 0-15 8t-7 17v178z m458-97q9-2 15-9t5-17v-106q0-9-5-16t-15-9l-45-11q-16-68-50-121l23-38q5-8 4-17t-8-15l-74-75q-7-7-16-8t-17 4l-38 23q-53-34-121-50l-10-45q-2-9-9-15t-17-5h-106q-9 0-16 5t-9 15l-11 45q-68 16-121 50l-38-23q-7-5-16-4t-16 8l-75 75q-7 6-8 15t4 17l23 38q-34 53-50 121l-45 11q-9 1-14 9t-6 16v106q0 9 6 17t14 9l45 10q16 68 50 121l-23 38q-5 8-4 17t8 16l75 74q6 7 15 8t17-4l38-23q53 34 121 50l11 44q2 8 9 15t16 6h106q9 0 17-6t9-15l10-44q68-16 121-50l38 23q8 5 17 4t16-8l74-74q7-7 8-16t-4-17l-23-38q34-53 50-121z m-431-317q64 0 119 32t87 87 32 119-32 119-87 87-119 32-119-32-87-87-32-119 32-119 87-87 119-32z" horiz-adv-x="902" />

<glyph glyph-name="V" unicode="&#x56;" d="M220 247l229 323q1 3 5 5h1q6 0 9-2l8-3q1-1 5-3l3-2 3-3 31-19q6-5 8-10t-1-10l-7-11q-156-235-257-383-7-10-18-10t-21 6l-207 165q-10 8-11 19t6 20l25 32q7 8 19 10t21-6z" horiz-adv-x="522" />

<glyph glyph-name="X" unicode="&#x58;" d="M290 343l162-159q8-10 8-19t-8-18l-22-22q-8-8-18-8t-19 8l-161 158-152-154q-7-8-18-8t-19 8l-22 22q-8 8-8 18t8 19l152 154-165 162q-8 8-8 18t8 19l22 22q7 7 18 7t19-7l164-162 169 172q7 7 18 7t19-7l22-22q7-7 7-18t-7-19z" horiz-adv-x="466" />

<glyph glyph-name="bracketright" unicode="&#x5d;" d="M29-1v-59h-29v159l33 1q38 0 56-11t17-36q0-55-65-55-5 0-12 1z m0 76v-51q7-1 11-1 19 0 28 7t9 21q0 24-40 24h-8z m82-76q0 26 16 43t41 17 41-16 14-44-15-45-41-16-41 16-15 45z m29 0q0-39 27-39 13 0 21 10t7 29q0 38-28 38-12 0-19-10t-8-28z m172 32q-7 5-16 5t-16-8-8-22v-66h-27v117h27v-11q11 13 30 13 14 0 22-5z m32 4h-14v22h14v23l27 10v-33h32v-22h-32v-51q0-13 4-18t14-5 18 5v-25q-10-3-27-3t-26 10-10 28v59z m149-83q-4-6-13-10t-19-4q-19 0-30 9t-11 28 16 31 43 11q4 0 11-2 0 21-26 21-15 0-26-5l-6 21q14 7 34 7 26 0 39-12t12-46v-25q0-23 9-29-3-6-7-8t-9-1-11 4-6 10z m-3 43q-7 1-10 1-32 0-32-21 0-15 18-15 24 0 24 24v11z m61 105l27 6v-130q0-22 13-26-6-12-21-12-19 0-19 26v136z m196-160v73q0 23-21 23-6 0-11-3t-9-9v-84h-27v77q0 9-5 14t-15 5q-5 0-11-4t-9-8v-84h-27v117h19l5-11q12 13 29 13 24 0 35-13 5 6 15 10t18 3q19 0 30-11t11-31v-77h-27z m121 12q-4-6-13-10t-19-4q-19 0-29 9t-11 27q0 20 15 32t43 11q5 0 11-2 0 21-26 21-15 0-26-5l-5 21q14 7 33 7 27 0 39-12t12-46v-25q0-23 10-29-4-6-8-8t-9-1-11 4-6 10z m-3 43q-7 1-10 1-32 0-32-21 0-15 18-15 24 0 24 24v11z m49-47l10 21q12-9 28-9t15 11q0 6-4 10t-19 11q-30 12-30 35 0 15 12 24t29 8 34-8l-8-22q-9 8-24 8t-15-11q0-5 5-8t20-10 22-15 7-20q0-16-12-26t-33-9q-12 0-19 2t-18 8z" horiz-adv-x="996" />

<glyph glyph-name="b" unicode="&#x62;" d="M533 921q11 30 35 46t65 10q38-9 55-44t-1-77q-10-22-36-36-23-14-53-11-37 7-56 38t-9 74z m-344-137q-5 50 35 84t98 24q20-5 36-18t22-29q23-59-28-104-49-44-121-17-18 11-29 26t-13 34z m152-403q29 81 57 165 20 60 58 163 13 38 52 58t87 2q16-7 27-21 13-15 16-30t-1-37-9-36l-46-156q-24-81-48-150-10-33-27-52t-46-29q-21-10-46-6-21 4-42 11-13 7-26 26t-15 35q-1 10 2 28 4 20 7 29z m509 228q-63-16-97 26t-5 99q16 20 36 32 23 11 56 7 36-6 56-35t9-71q-6-20-20-35t-35-23z m-541-17q-12-52-41-130l-49-129q-15-47-52-71t-97-18q-39 6-58 36t-7 72l53 133 39 95 16 37q12 22 34 37 18 11 46 22l3 1 9 1 19-2q39-1 65-23t20-61z m294-361q7 53 29 122 21 65 37 124 5 17 11 35 3 10 6 14 16 27 45 41t68-1q26-9 46-32t10-57l-33-140q-16-68-28-113-13-42-50-63-40-24-89-7-18 4-28 14l-1 2q-11 14-16 25-4 8-6 15-1 5-1 21z" horiz-adv-x="908" />

<glyph glyph-name="c" unicode="&#x63;" d="M443 214h-6q-6 1-16-11t-5-20l4-8q0-8 16-11l39-10q25-7 38-9l69-17q13-3 14-4l5-1h5l5 1q3 0 6 1l3 1v1l6 2q4 3 6 7l1 2q0 2 1 2v1l2 2q1 1 0 7 1 3 0 5v5q1 1-5 7l-5 5q-1 0-3 2l-4 2h-2q-1 1-29 7l-41 9q-12 3-27 6-21 4-42 10-28 6-30 6t-4 1z m217 8q1 0 0 1l1 2v4l1 3q0 1-1 1v4l-1 2q0 1-1 1l-1 2q0 2-3 5t-4 3l-5 3-5 1q-3 2-13 3l-27 5q-4 2-18 3l-102 20-14 2-6-1-8-3q-3-3-4-3t-2-1-1-2-4-6l-2-4q-1-1-1-7t1-8l3-7q2-5 7-6l6-2q1-1 4-1l57-12q15-4 18-4h1q2-1 4-1l9-2q3-1 28-6t28-6l2-1 16-2 9-2q7-2 16 6t8 8z m-451 57l-3-3q-1 0-5-4l-2-2-2-1-6-6-4-2-6-6-14-12q-27-19-17-35l4-7 8-6q5-5 13 2l10 9q2 1 5 4l4 2q0 1 1 1l30 26q5-3 5-7l14-43q0-10 15-19l14 1 7 5q5 5 5 6l3 6q3 3 1 8 0 3-1 6v1q0 2-1 4l-19 51q0 2-2 6l-1 3q-1 3 0 4l3 3q2 2 3 2l6 6 14 11q3 2 6 5l12 9q9 7 10 10l3 6 1 4q1 4 1 6 0 8-1 9t-1 2l-3 3q-1 3-3 3l-3 2q-4 2-12 0t-11-4l-8-8-4-2-1-1q-2-3-4-4t-7-6l-5-5-8-6q-2-2-4-2l-2 4q-2 6-3 7l-10 31q0 4-7 10t-9 4-6-2l-1-1q-3-1-4-2l-4-2q-2 0-8-10-5-12-2-15l1-2 1-5 4-8q2-4 3-10l1-3q0-2 1-3t3-8 5-12 1-6z m339 278q-1 0-2-1l-11-5-3-3-2-1-7-12q-1-1-1-7t1-8l3-6 1-1q2-4 4-4h4q2-2 8-2t36-3l43-4q8 0 22-2l23-2q11 0 15-1l16-1 14-2h9l4 1h2v1h2l7 3q2 0 7 5l6 6 4 7q2 3 2 5v6q0 4-1 6t-3 4v1l-2 2-6 4q-3 3-13 3l-26 2q-24 2-36 2l-39 3q-11 0-44 3l-16 1q-17 1-17 0h-4z m-318 6q0-2-1-4t-2-9q-3-15 16-17 5 0 9-1h3q7 0 18-1l17-2q1 0 1-3t-4-17-7-19l-4-12q-3-10-3-12v-3l2-7q3-5 6-7l5-2h11q8 0 13 8l5 9 5 17q5 18 9 30l4 13q0 1 5 1l33-3q30-3 35 2l6 5q1 0 1 2l1 1q1 2 3 4t1 3l3 11-1 6q-1 1-1 3l-6 6-3 1q-1 1-7 1l-54 4q-1 1 0 6l13 41q3 8 1 15-6 17-24 9l-4-2-6-4q-2-3-5-5-4-7-10-29-7-26-9-28l-25 1q-17 2-30 2h-1q-7-2-10-5-7-4-7-7z m253 108l2-2h3q1 0 0-2t0-3 1-3 1-2v-1q1 0 0-1v-2q1 0 0-1v-4l-1-4q-1-1-2-6l-14-44q-8-28-13-42l-41-134-2-3-1-3h-1l-5-6v-1h-1q0-1-4-4t-6-3h-2v-1q-1-1-2 0t-1-1h-1q-1 0-1-1h-6l-27 3-54 8q-42 7-90 13l-9 1q-20 4-24 4l-5 2q-1 0-1 1h-1q-1 0-1 1l-2 1q0 1-1 3t-2 2-2 1q2 2 0 2v3l-1 3v5q0 3 6 19l6 22 8 25 13 46q5 14 7 22l14 46q8 27 9 27v1q0 2 1 2l1 2q1 2 4 5t3 4 5 3l5 3v1h3l2 1h3q2 0 3 1h34q16-1 36-1h33q14-1 28-1h43l35-1q0-1 4-1h3q1-1 2-1h1q0-1 1-1v0q0-1 1-1v0z m49 1h1l6 2q1 0 1 1h4q4 0 4 1h47q14-1 33-1h32l32-1h35l29-1h39l31-1 4-1h5l1-1h3v-1h1q2 0 3-1l4-4 3-2q2-1 3-3t0-2v-1l1-1q-1-1 0-1v-1h1v-3h1v-2q1 0 0-1v-2q2 0 0-2v0q0-1-1-1v-1q1 0 0-3l-19-58q-4-18-6-18 0-2-3-10l-7-25q-2-4-4-10l-4-14-11-34q-3-11-11-35l-11-34-2-8-1-1-6-19h-1v-1q1-1 0-1v-1q-2 0-2-1t-1-2-1-2l-2-1-2-2q0-1-1-1v-1l-2-1q-2-1-2-2l-2-1q-1-1-1 0t-2-1l-5-3h-1q-2 0-3-1t-2-1h-2q0-1-1 0t-2-1h-15q-1 1-3 1l-4 1-203 29q-35 4-44 6l-7 1q0 1-2 1l-5 1q-4 0-4 2t-1 1v0q-1 0-1 2t-2 2-3 3l-3 4q2 0 1 3t-2 2v8q1 1 1 2v3q2 3 4 10l5 20 21 65 27 90 13 41 3 6q0 1 1 2l1 2q0 2 2 2l1 2 6 7h1z m-208-549l-6-6q0-2-2-2t-4-1l-2-1q-1 1-1 0h-12q-2 2-2 0l-17 4q-13 5-22 7l-23 6-21 7q-3 0-12 3l-34 10-37 10-25 8q0 1-1 1h-2q0 1-2 1l-1 1q-3 0-3 2t-2 5-3 6l-1 4v6q0 2 7 25l12 38 8 29q4 11 6 20l11 35 10 35 8 25q1 1 1 2l9 9q0 1 1 1l10 5q3 0 3 1h2q1-1 2-1l93-13 50-8q17-2 39-6l21-3q3 0 3-1h1l2-1q0-1 2-1t1-1 2-2l5-6q0-2 1-2v-2l1-3v-6q2 0 0-3l-1-2q2-1 1-2t-5-12l-22-73q-2-9-7-21l-18-59q-13-41-15-50l-2-5-1-5q-2 0-2-2z m31-22l-3 3q-2 0-2 3l-2 6v2q-1 1-1 2v3q1 1 0 2v2l1 2q-1 1 0 2l5 15q3 13 7 23l25 82q17 53 24 78l9 29q1 0 1 2l2 3 7 8 4 3 8 4q0 1 1 0l3 2h5q1 0 1 1h2q0-1 3-1l20-2 63-10q10-2 25-3 20-4 29-5l90-13 30-5q6 0 7-1h2l8-2 11-8q0-3 1-3h2q0-1 1-1v-1q0-1 1-2l1-2h1l-1-1q0-1 1-1v-2q0-1 1-1v-5q1 0 0-1v-1q0-1 1-1v0q0-1-1-1v-2l-2-8q-5-12-8-25l-6-20-14-41-3-10q-5-15-7-23-5-13-7-22l-7-22q-2-4-3-12l-1-2q-1-2-3-9l-16-47-4-16-4-9q0-1-1-1l-1-2q0-1-1-1l-1-2q0-2-1-2t-2-1l-3-2q-1 0-1-1t-1-1l-12-4q0-1-1 0l-2-1h-2q-1 0-1-1h-3q-1 2-3 0h-1v1l-4 1h-2q-1-1-1 0t-8 1l-33 10q-8 2-13 4l-10 3q-5 1-6 2-3 0-10 3t-13 3l-12 4q-2 0-6 1l-2 1q-9 3-19 5l-7 2q-14 4-21 7t-22 6l-35 10q-14 4-28 7l-16 8q0 1-1 1t-2 1v2z m-88 648q-72-9-115-55-46-49-63-112l-44-147q-24-82-43-181-6-42 9-78t40-59q13-14 28-22 23-11 51-19l238-79q49-16 116-39 72-25 107-22 84 1 146 37 59 35 86 90 12 32 84 248 73 219 83 254 6 20 7 37t-4 32q-12 63-58 101t-109 38q-122 0-285-5-155-6-274-19z" horiz-adv-x="996" />

<glyph glyph-name="d" unicode="&#x64;" d="M369-122l2-2q2-5 4-6 4-4 9-4 2 0 8 2 3 2 6 6-8 5-8 24v21q0 29-9 39t-34 11q-17 0-29-6l5-18q12 4 22 4 22 0 22-17-4 1-10 1-22 2-35-8t-14-28q0-14 10-23t24-8q9 0 16 3t11 9z m-2 37v-10q0-20-20-20-16 0-16 13 0 20 27 18z m54 77q5 0 9-3t3-9-3-9-9-4-9 4l-4 9q-2 4 4 8t9 4z m0 0q5 0 9-3t3-9-3-9-9-4-9 4l-4 9q-2 4 4 8t9 4z m-11-127v74h-12v18h33v-92h-21z m-106 96q-10 8-30 10-26 0-39-14t-16-39q2-26 14-38t36-13q10 0 18 2l3 1 15 7-9 18q-11-8-23-8-30-1-30 31 2 16 8 24t21 9 22-8z m385-95h22v65q1 16-9 28-8 8-26 10t-28-11l-4 9h-16v-101h22v75q1 2 9 7 3 2 10 2 13 0 17-6t3-17v-61z m-74 45q0 2 1 5l1 8q0 18-14 34-12 13-35 13-20 1-35-15t-16-39q2-25 15-38t36-13 37 10l-9 18q-8-8-25-8-10-1-21 6-7 8-8 19h73z m-72 18q4 22 26 23t24-23h-50z m-37 17q-7 5-15 5t-14-8-6-18v-58h-24v102h24v-10q9 12 26 12 11 0 19-4z m1641 36z m0-82z m-1666 875q15 3 32 3t28-4 29-21 78-84l156-174 87-95q45-49 58-68 8-12 12-39 3-17-5-39-5-14-24-34-24-25-39-34-21-12-46-18-20-5-42-2t-43 9q-24 7-36 19-25 26-40 44l-171 208-47 56q-13 16-14 16-5 4-7 4-6-2-20-13l-6-5q-13-10-18-15l-267-208q-32-25-64-22t-32 7q0 1-22 21l-3 2q-8 5-12 20-5 18-2 30 2 10 4 26 1 9 10 21l14 19q3 4 17 16l71 61 124 105 73 64 113 98q23 20 54 26z m-82-408q12 2 33 1t32-11q10-7 21-18t14-23q6-19 6-32 0-8-6-36-3-14-17-32-18-22-26-27-20-13-34-18t-36-6q-50-3-75 27-10 12-14 23-7 17-7 31-1 18 2 28l10 26q3 8 17 24t22 21l27 14q7 4 25 7z" horiz-adv-x="961" />

<glyph glyph-name="e" unicode="&#x65;" d="M364-119l2-2q2-5 4-6 4-4 9-4 2 0 8 2 3 2 6 6-8 5-8 24v21q0 29-9 39t-34 11q-17 0-29-6l5-18q12 4 22 4 22 0 22-17-4 1-10 1-22 2-35-8t-14-28q0-14 10-23t24-8q9 0 16 3t11 9z m-2 37v-10q0-20-20-20-16 0-16 13 0 20 27 18z m54 77q5 0 9-3t3-9-3-9-9-4-9 4l-4 9q-2 4 4 8t9 4z m0 0q5 0 9-3t3-9-3-9-9-4-9 4l-4 9q-2 4 4 8t9 4z m-11-127v74h-12v18h33v-92h-21z m-106 96q-10 8-30 10-26 0-39-14t-16-39q2-26 14-38t36-13q10 0 18 2l3 1 15 7-9 18q-11-8-23-8-30-1-30 31 2 16 8 24t21 9 22-8z m261-85l8 18q11-8 24-8t12 9q1 5-4 9-1 2-8 6l-7 3q-25 10-25 29-1 11 9 19t25 8 29-7l-7-18q-7 5-21 7-12-1-12-10 0-2 4-6 7-5 17-8 13-6 19-13t5-17q0-14-9-22t-28-7q-12 0-15 1l-12 5z m-26 117q6-2 9-4t3-8-3-9-9-4-9 4-4 9 4 8 9 4z m0 0q6-2 9-4t3-8-3-9-9-4-9 4-4 9 4 8 9 4z m-11-127v74h-12v18h33v-92h-21z m-24 108q-3 1-11 3-6 0-10-6-9-10-4-12 1-1 0-3h19v-17h-19v-74h-21v74h-13v17h13q0 19 10 27 11 11 24 11l3-1q9-1 15-3z m-173 858q2 1 8 1l7 1q13 0 20-1 17 0 21-1l14-3q5-2 11-6l2-1q6-4 9-7 12-11 17-23t3-31q0-14-4-25l-92-280-69-204-41-128q-1-4-9-18l-10-18q-5-10-22-23t-30-21q-25-13-53-14t-52 7q-14 5-23 13-13 10-20 21-8 15-11 34-4 23 0 42 2 11 7 27l129 342 28 77 17 45q5 18 12 35l12 32 4 8q4 12 16 36 5 11 12 24l1 1q9 12 23 26 12 13 24 20 17 9 39 12z m236-16q15 3 16 3 14 0 39-1l90-2q53-2 75-7 18-4 38-20 5-3 15-15l1-1q5-6 10-16 2-5 4-20v-24q-1-11-3-16-4-6-9-19t-13-22q-11-13-20-19-16-14-26-17t-34-3l-147 5q-23 0-39 2-13 1-25 6-28 8-41 26t-14 48q0 20 1 24 4 13 9 23t11 18q11 18 28 30 25 16 34 17z m-90-298q6 1 11 2h20l20-1 45-4q11 0 14-1l92-8 15-2q21-4 36-11t26-20q18-18 22-31 4-8 4-39 0-19-3-27t-12-27l-3-6q-3-7-5-10-8-10-14-16l-26-22q-1-2-6-4l-2-2-13-5q-8-3-11-2-8 0-20 1l-180 13q-29 2-34 4l-17 5q-12 4-16 7-20 10-31 33t-9 54q3 49 41 86 30 29 56 33z" horiz-adv-x="849" />

<glyph glyph-name="f" unicode="&#x66;" d="M382-121l2-2q2-5 4-6 4-4 9-4 2 0 8 2 3 2 6 6-8 5-8 24v21q0 29-9 39t-34 11q-17 0-29-6l5-18q12 4 22 4 22 0 22-17-4 1-10 1-22 2-35-8t-14-28q0-14 10-23t24-8q9 0 16 3t11 9z m-2 37v-10q0-20-20-20-16 0-16 13 0 20 27 18z m54 77q5 0 9-3t3-9-3-9-9-4-9 4l-4 9q-2 4 4 8t9 4z m0 0q5 0 9-3t3-9-3-9-9-4-9 4l-4 9q-2 4 4 8t9 4z m-11-127v74h-12v18h33v-92h-21z m-106 96q-10 8-30 10-26 0-39-14t-16-39q2-26 14-38t36-13q10 0 18 2l3 1 15 7-9 18q-11-8-23-8-30-1-30 31 2 16 8 24t21 9 22-8z m224-42q-1-21 12-38 14-14 36-14t34 14 12 37-12 38q-11 12-35 14-20 0-34-15t-13-36v0z m24 0q0 14 6 23t17 9q26 0 23-32-1-16-6-25t-17-8q-26-2-23 33z m165 41q-11 9-30 9-25 3-39-14-15-15-15-39t14-37 36-13q12 0 18 2l17 8-8 18q-11-7-23-9-16 1-23 8t-7 24q0 13 8 24 5 8 21 9 13 0 22-8z m-265-84l8 18q10-10 22-8 13-1 13 9 0 6-4 9t-15 8q-25 12-25 29 0 14 9 21t26 6 27-7l-6-17q-7 6-21 6-11 0-11-9-1-3 3-7 7-5 17-8 14-4 19-12t5-17q0-13-9-21t-28-8q-12 0-17 1t-13 7v0z m-377 748q-57 45-42 129t100 84q163-23 355-56 178-31 349-57 27-6 49-22t35-30q40-38 35-108-3-68-43-100-19-13-42-20t-52-5l-46 11q-166 38-245 57-89 22-279 66l-17 4q-91 21-121 29-22 8-36 18z m813-364q43-48 33-123t-66-99q-64-18-119 0l-107 39q-121 39-281 98l-280 102q-34 15-57 40-24 27-24 71 5 63 36 97t93 22l338-94 332-94q38-7 60-22 23-19 42-37z" horiz-adv-x="969" />

<glyph glyph-name="g" unicode="&#x67;" d="M392-119l2-2q2-5 4-6 4-4 9-4 2 0 8 2 3 2 6 6-8 5-8 24v21q0 29-9 39t-34 11q-17 0-29-6l5-18q12 4 22 4 22 0 22-17-4 1-10 1-22 2-35-8t-14-28q0-14 10-23t24-8q9 0 16 3t11 9z m-2 37v-10q0-20-20-20-16 0-16 13 0 20 27 18z m54 77q5 0 9-3t3-9-3-9-9-4-9 4l-4 9q-2 4 4 8t9 4z m0 0q5 0 9-3t3-9-3-9-9-4-9 4l-4 9q-2 4 4 8t9 4z m-11-127v74h-12v18h33v-92h-21z m-106 96q-10 8-30 10-26 0-39-14t-16-39q2-26 14-38t36-13q10 0 18 2l3 1 15 7-9 18q-11-8-23-8-30-1-30 31 2 16 8 24t21 9 22-8z m267-82q2-5 6-9t9-2q2-1 8 1 3 2 6 6-8 5-8 25v21q0 28-10 39-8 8-33 10-17 0-29-6l5-18q6 3 22 5 21 0 22-18l-10 2q-21 2-36-10-13-9-13-27 0-14 10-23t24-7q9-1 16 2t11 9z m-2 37v-9q0-21-21-21-15 0-15 13 0 20 27 18z m120 43q-8 8-31 10t-38-15q-15-13-15-38t13-37q18-14 37-13 16 0 19 1t11 6l5 2-8 19q-13-9-23-9-32 0-30 31 0 12 8 25 5 8 21 8 10 1 22-7z m-183 16q-4 0-9 2t-12-5q-9-13-4-13 2 0 0-2h19v-18h-18v-73h-22v73h-13v18h14q-1 17 9 27 13 11 24 10 7 0 19-3z m-270 845q147 14 266 18 189 6 276 5 62-1 107-38 41-33 55-97 4-16 3-32 0-21-5-35l-81-246-81-241q-27-52-84-86-55-33-141-37-37-2-105 22l-7 2-336 112q-42 14-49 18-11 7-27 22-27 27-39 57-16 38-9 76 15 87 42 175 32 102 43 143 19 67 61 109 47 47 111 53z m-24-557q13-35 52-47t76 15l421 304 32 26q33 27 38 40 17 44-5 70t-58 31q-43 6-65-4t-55-36l-320-255q-10-8-11-8-4 0-5 3l-21 49q-9 19-29 66-15 36-32 59-9 13-25 16t-33-1q-20-4-39-23t-19-46q1-18 16-55l25-60 32-83q17-40 22-53z" horiz-adv-x="965" />

<glyph glyph-name="h" unicode="&#x68;" d="M248 11l-10-18q-8 8-22 8t-22-9-8-25q0-32 31-32 13 0 23 8l9-18q-10-7-18-9t-18-1q-24 0-37 13t-14 38 15 40 40 15q18 0 31-10z m77-84q-3-6-11-9t-17-3q-17 0-26 8t-10 23q0 18 14 28t37 10q5 0 10-1 0 18-22 18-14 0-23-5l-5 19q12 6 29 6 23 0 34-11t11-40v-22q0-21 8-26-3-5-6-6t-9-1-9 3-5 9z m-2 38q-7 1-10 1-28 0-28-19 0-13 16-13 22 0 22 21v10z m68 93q5 0 9-4t4-9-4-10-9-4-10 4-4 10 4 9 10 4z m-13-141v82h-13v20h37v-102h-24z m45-27l15 19q12-12 27-12 11 0 18 3t6 9q0 9-15 9-4 0-12-1t-12-1q-24 0-24 18 0 5 4 9t9 8q-17 11-17 32 0 16 12 27t30 11q13 0 23-5l9 10 16-14-11-9q6-9 6-21 0-17-10-28t-28-10h-6l-4 1q-1 0-5-2t-5-5 7-3l10 1q7 2 12 2 34 0 34-28 0-16-13-25t-34-8q-24 0-42 13z m23 93q0-9 5-15t14-5 13 5 4 15q0 7-4 12t-13 6-13-5-6-13z m148-66v6q-3-3-10-6t-15-2q-21 0-33 13t-13 38 14 39 36 16q11 0 21-5v37l23 6v-142h-23z m0 77q-8 6-16 6-15 0-22-9t-8-24q0-32 31-32 3 0 8 2t7 4v53z m66 64q6 0 10-4t4-9-4-10-10-4-10 4-4 10 4 9 10 4z m-12-141v82h-13v20h37v-102h-24z m-387 939q53 19 111 25 63 8 127-4 70-14 130-49t100-82q15-16 37-48 17-27 30-55 31-73 33-152t-27-153l-11-26-21-39-4-6q-9-13-18-23l-5-7q-12-16-18-22-9-10-27-27l-19-17-20-15-11-6q-6-6-10-6v-1q0-1-2-1l-5-3q-28-18-56-29t-64-19-63-10q-47-2-73 0h-3q-29 4-45 8l-10 2q-25 6-36 10-88 28-153 88t-100 145q-18 41-25 93-7 56 1 111t22 89q14 37 42 77 14 21 33 42 21 24 39 38 14 12 27 21l18 12 11 8 33 17q20 11 25 12l3 1z m114-74q-3 0-8-2l-9-2-15-5-32-14q-23-10-28-16l-3-2q-3-1-11-8l-3-2-9-9q-9-6-19-19l-17-18q-10-12-18-25l-16-25-4-8q0-2-1-2t-5-12l-5-17q-3-10-2-19t4-18q0-2 3-6l8-11q3-3 9-7 3-3 13-7l97-46q42-19 53-23 6-3 19-5h1q12 0 17 1 20 7 31 22 14 17 8 42-6 20-30 34l-58 31-21 10q-8 5-8 6l10 12q4 6 17 19 10 11 23 22 4 4 11 8l10 6 5 2q12 7 34 10t36-2q32-8 50-17 21-11 37-30 12-12 20-27 8-12 14-29 5-15 6-25 1-7 1-32v-25h1l-1-3q-1 1-1-2l-2-5-5-26q-2-7-8-21-4-8-4-11l-2-2-1-2q-3-8-7-15l-4-7q-6-13-10-17-16-25-33-41t-44-30l-22-10q-16-6-25-7-36-6-68 4t-55 23q-10 6-15 11-4 2-10 8l-5 4-9 12q-3 4-13 20l-8 11q-9 14-22 32l-4 5q-8 9-17 14-15 6-33 3t-29-14q-8-6-8-8v0q0-1-1-1l-4-10q-2-6-2-8l-1-15v-14l2-10q22-55 65-92t97-63q57-25 129-26 23 0 48 3t40 9q4 2 9 3 21 7 43 18 25 13 39 25l7 6q8 8 13 11 12 10 22 20l8 10q6 7 8 10l4 3q2 2 2 3l1 3q3 3 10 14 1 2 4 5 1 1 1 3l1 2q16 18 32 66 15 40 20 74 8 65-9 119-18 50-48 88-22 28-58 54t-74 41q-31 12-76 17-43 3-83-4z" horiz-adv-x="829" />

<glyph glyph-name="exclamdown" unicode="&#xa1;" d="M527-75l2-2q2-5 4-6 4-4 9-4 2 0 8 2 3 2 6 6-8 5-8 24v21q0 29-9 39t-33 11q-18 0-30-6l5-18q12 4 22 4 22 0 22-17-4 1-10 1-22 2-35-8t-14-28q0-14 10-23t24-8q9 0 16 3t11 9z m-2 37v-10q0-20-20-20-16 0-16 13 0 20 27 18z m-88-49v62q0 20-18 20-5 0-10-3-2-1-5-5l-2-2v-72h-23v66q0 7-4 11t-13 5q-5 0-10-4t-7-7v-71h-23l1 99h16l3-8q10 10 26 10 19 0 29-11 3 5 12 8t17 3q15 0 25-9t9-27v-65h-23z m42 514q22 37 27 33t46-147l43-145-20-14q-17-14-78-37-59-20-94-24-97-12-198 37l-32 15q-12 7-15 11-8 6-3 26l2 6q16 62 38 133 39 138 42 135 4 2 34-36l16-27q17-27 39-48 11-11 33-14 31-2 50 8 5 3 34 33 7 6 36 55z m-171 402q58 12 111 2 93-19 171-71 45-37 59-55 30-44 52-79 18-40 24-60t9-92q2-41-2-75-3-41-8-46-3-4-6 0t-8 14q-11 24-52 154-41 135-55 156-16 23-41 31-48 18-98-48l-64-83-29-36-22 28q-19 21-23 30-8 17-45 58-34 39-47 48t-41 9-50-36q-25-40-60-158-27-91-47-154l-10-35-12 21q-11 22-14 83-3 86 18 147 73 201 290 247z m-61-902l2-2q2-5 4-6 4-4 9-4 2 0 8 2 3 2 6 6-8 5-8 24v21q0 29-9 39t-34 11q-17 0-29-6l5-18q12 4 22 4 22 0 22-17-4 1-10 1-22 2-35-8t-14-28q0-14 10-23t24-8q9 0 16 3t11 9z m-2 37v-10q0-20-20-20-16 0-16 13 0 20 27 18z m54 77q5 0 9-3t3-9-3-9-9-4-9 4l-4 9q-2 4 4 8t9 4z m0 0q5 0 9-3t3-9-3-9-9-4-9 4l-4 9q-2 4 4 8t9 4z m-11-127v74h-12v18h33v-92h-21z m-106 96q-10 8-30 10-26 0-39-14t-16-39q2-26 14-38t36-13q10 0 18 2l3 1 15 7-9 18q-11-8-23-8-30-1-30 31 2 16 8 24t21 9 22-8z m469-55q0 2 1 5l1 8q0 17-14 33-11 12-33 12-20 2-36-14-14-17-14-38 2-25 14-37t35-12 36 9l-9 18q-8-8-24-8-11-1-20 6-7 9-8 18h71z m-70 18q5 21 25 21t23-21h-48z" horiz-adv-x="735" />

<glyph glyph-name="cent" unicode="&#xa2;" d="M500 56z m-230 684q49 17 115 25 68 9 130-4 74-16 135-51 59-34 102-84 15-16 39-50 20-35 30-56 33-74 35-157 0-88-29-158l-1-4q-7-18-10-23l-10-19q-7-15-16-27-7-10-18-24-13-19-23-29l-7-7q-13-14-22-22-5-5-19-17l-21-15-11-7q-7-6-10-6v-1l-8-4q-14-12-57-30-30-11-65-19-27-7-66-10-46-4-75-1-16 2-50 8-26 5-47 12-94 32-159 92t-102 149q-19 45-26 97t0 113q9 54 24 93 19 43 43 79 13 19 34 44t40 38q6 6 20 16l8 6q7 6 24 16l6 4q18 10 34 18 20 10 26 12l3 1z m118-77q-6-1-18-5l-16-5q-10-3-32-13l-30-17-2-2q-7-4-12-9l-13-11-19-19-17-19q-7-7-19-25l-4-8q-8-13-12-18l-5-9v-2q-1-1-4-7l-7-23q-2-14-1-20l3-18 4-8q4-6 8-9t9-8l90-43q71-33 78-35t21-5q6-1 18 1 16 4 31 23t9 41-32 36l-60 33-21 10q-8 5-8 6l6 7q2 3 2 4l2 1 11 14 6 6q18 18 24 23t12 8q3 3 7 5l2 1q2 0 6 3 14 8 34 10t38-2q31-7 52-18t38-30q9-11 21-29 8-13 14-30 4-15 6-26 1-15 1-32v-27h1l-1-2-2-7q-5-19-6-28-3-10-8-21-5-7-5-11v-1q-1 0-1-1-1-4-9-18l-14-25q-17-25-34-41-22-22-46-32l-4-2q-11-6-18-8-15-5-26-8-39-6-70 4-34 11-57 24-6 3-16 12l-14 13-8 9-24 34q-16 25-27 38-7 10-17 15-15 8-35 3t-29-14l-5-5q-3-2-3-3t-1-1-2-6l-3-7q-1-5-2-6l-1-15v-15l3-10q21-56 67-96 41-37 100-63 54-26 132-28 28 0 49 4 37 4 43 9 2 2 9 3 22 7 44 19 28 14 41 26t20 16q13 11 22 21l6 6q9 10 11 14l4 4q2 2 2 3l1 3q3 1 11 15 2 4 3 5t1 2l2 2q18 21 33 68 15 41 20 77 9 71-9 123-20 54-49 90-23 30-60 56-42 29-76 43-36 11-79 17-39 4-85-4z" horiz-adv-x="855" />

<glyph glyph-name="sterling" unicode="&#xa3;" d="M199 714q18 18 41 31 19 11 56 13 26 1 43-8t23-24q16-31 4-66-16-36-33-55-27-27-75-39t-81 21q-22 32-12 69 9 34 34 58z m281-223q-7 52 18 85t59 50q30 17 67 12t51-29q20-35 5-73-14-36-42-59-30-24-64-32-40-9-67 10-10 7-16 16-11 13-11 20z m402-337q-6-65-55-94-51-32-116-3-117 51-290 136l-312 149-42 21q-17 9-23 13-21 16-32 34t-12 45q0 44 23 74 24 32 63 32 48 0 99-25 24-12 94-40l509-206q27-11 50-32 27-30 35-47t9-26q2-14 0-31z m-80 278q22 33 56 55t84 13q26-5 41-27 15-25 9-58-9-46-50-80t-97-29q-27 3-45 25t-16 52q0 3 4 16l3 9q3 12 11 24z m-599-325q21 35 63 58t91 6q21-8 33-30t4-54q-12-43-45-72-37-31-85-34t-69 38 8 88z" horiz-adv-x="993" />
</font>
</defs>
</svg>
